<?xml version="1.0" encoding="UTF-8" standalone="no"?>
<!DOCTYPE svg PUBLIC "-//W3C//DTD SVG 1.1//EN" "http://www.w3.org/Graphics/SVG/1.1/DTD/svg11.dtd">
<svg width="100%" height="100%" viewBox="0 0 205 14" version="1.1" xmlns="http://www.w3.org/2000/svg" xmlns:xlink="http://www.w3.org/1999/xlink" xml:space="preserve" xmlns:serif="http://www.serif.com/" style="fill-rule:evenodd;clip-rule:evenodd;stroke-linejoin:round;stroke-miterlimit:2;">
    <g transform="matrix(1,0,0,1,-61.6711,-115.442)">
        <g transform="matrix(64,0,0,64,59.3671,141.874)">
            <path d="M2.605,-0.333C2.71,-0.327 2.814,-0.323 2.917,-0.32C3.02,-0.317 3.123,-0.309 3.228,-0.298C3.123,-0.293 3.02,-0.288 2.917,-0.283C2.814,-0.278 2.71,-0.275 2.605,-0.275C2.553,-0.269 2.501,-0.266 2.45,-0.265C2.398,-0.264 2.346,-0.263 2.294,-0.263L2.041,-0.263C2.036,-0.263 2.03,-0.261 2.025,-0.257C2.022,-0.255 2.02,-0.253 2.018,-0.252C1.995,-0.235 1.972,-0.221 1.949,-0.211C1.926,-0.2 1.902,-0.195 1.879,-0.195C1.856,-0.195 1.834,-0.202 1.812,-0.217C1.79,-0.231 1.77,-0.258 1.753,-0.298C1.736,-0.293 1.721,-0.285 1.709,-0.275C1.696,-0.265 1.684,-0.257 1.673,-0.252C1.65,-0.235 1.627,-0.221 1.604,-0.211C1.581,-0.2 1.557,-0.195 1.534,-0.195C1.511,-0.195 1.488,-0.202 1.467,-0.217C1.445,-0.231 1.425,-0.258 1.408,-0.298C1.391,-0.293 1.376,-0.285 1.363,-0.275C1.35,-0.265 1.338,-0.257 1.327,-0.252C1.304,-0.235 1.281,-0.221 1.258,-0.211C1.235,-0.2 1.211,-0.195 1.188,-0.195C1.155,-0.195 1.12,-0.218 1.085,-0.263L0.97,-0.263C0.918,-0.263 0.866,-0.264 0.815,-0.265C0.763,-0.266 0.711,-0.269 0.659,-0.275C0.554,-0.275 0.451,-0.278 0.348,-0.283C0.245,-0.288 0.141,-0.293 0.036,-0.298C0.141,-0.309 0.245,-0.317 0.348,-0.32C0.451,-0.323 0.554,-0.327 0.659,-0.333L0.97,-0.333L1.28,-0.345C1.286,-0.345 1.292,-0.347 1.299,-0.352C1.306,-0.357 1.315,-0.362 1.327,-0.368C1.35,-0.379 1.372,-0.39 1.391,-0.399C1.41,-0.408 1.43,-0.413 1.453,-0.413C1.476,-0.413 1.5,-0.406 1.523,-0.392C1.545,-0.377 1.568,-0.35 1.591,-0.31C1.603,-0.321 1.615,-0.331 1.628,-0.339C1.641,-0.347 1.656,-0.357 1.673,-0.368C1.696,-0.379 1.716,-0.39 1.736,-0.399C1.755,-0.408 1.776,-0.413 1.799,-0.413C1.822,-0.413 1.845,-0.406 1.868,-0.392C1.891,-0.377 1.914,-0.35 1.937,-0.31C1.949,-0.321 1.961,-0.331 1.974,-0.339C1.986,-0.347 2.001,-0.357 2.018,-0.368C2.041,-0.379 2.063,-0.39 2.082,-0.399C2.1,-0.408 2.121,-0.413 2.144,-0.413C2.167,-0.413 2.188,-0.407 2.207,-0.395C2.225,-0.382 2.243,-0.362 2.26,-0.333L2.605,-0.333ZM1.408,-0.298C1.433,-0.285 1.457,-0.279 1.48,-0.279C1.496,-0.279 1.514,-0.282 1.534,-0.287C1.54,-0.287 1.548,-0.289 1.557,-0.294C1.566,-0.299 1.574,-0.304 1.58,-0.31C1.561,-0.329 1.54,-0.338 1.515,-0.338C1.495,-0.338 1.474,-0.332 1.453,-0.321C1.448,-0.321 1.44,-0.319 1.431,-0.314C1.421,-0.309 1.413,-0.304 1.408,-0.298ZM1.753,-0.298C1.779,-0.285 1.803,-0.279 1.826,-0.279C1.841,-0.279 1.859,-0.282 1.879,-0.287C1.885,-0.287 1.893,-0.289 1.903,-0.294C1.912,-0.299 1.92,-0.304 1.926,-0.31C1.907,-0.329 1.886,-0.338 1.861,-0.338C1.841,-0.338 1.82,-0.332 1.799,-0.321C1.794,-0.321 1.786,-0.319 1.776,-0.314C1.766,-0.309 1.758,-0.304 1.753,-0.298Z" style="fill:rgb(230,183,138);fill-rule:nonzero;"/>
        </g>
    </g>
</svg>
