<?xml version="1.0" encoding="UTF-8" standalone="no"?>
<!DOCTYPE svg PUBLIC "-//W3C//DTD SVG 1.1//EN" "http://www.w3.org/Graphics/SVG/1.1/DTD/svg11.dtd">
<svg width="100%" height="100%" viewBox="0 0 520 571" version="1.1" xmlns="http://www.w3.org/2000/svg" xmlns:xlink="http://www.w3.org/1999/xlink" xml:space="preserve" xmlns:serif="http://www.serif.com/" style="fill-rule:evenodd;clip-rule:evenodd;stroke-linejoin:round;stroke-miterlimit:2;">
    <g id="Layer4">
        <g transform="matrix(2.68133,0,0,2.68133,-216.835,-1989.48)">
            <path d="M190.791,851.913L177.84,859.393L177.837,859.393L161.223,868.985L148.262,861.504L148.262,762.144L109.169,784.717L92.558,794.309L92.558,775.125L109.169,765.533L148.262,742.964L149.982,741.974L164.88,750.575L164.88,851.909L177.837,859.39L190.791,851.913Z" style="fill:rgb(27,36,88);fill-rule:nonzero;"/>
            <path d="M263.112,775.125L263.112,794.309L246.495,784.717L207.402,762.144L207.402,861.501L194.448,868.981L178.5,878.192L177.837,878.577L149.982,894.655L92.558,861.504L92.558,794.309L109.169,784.717L109.169,851.909L149.982,875.475L161.223,868.985L177.837,859.393L177.84,859.393L190.791,851.913L190.791,750.575L205.689,741.974L263.112,775.125Z" style="fill:rgb(252,176,22);fill-rule:nonzero;"/>
            <path d="M263.112,794.309L263.112,861.504L205.689,894.655L177.837,878.577L178.5,878.192L194.448,868.981L207.402,861.501L194.451,868.985L205.689,875.475L246.495,851.909L246.495,784.717L263.112,794.309Z" style="fill:rgb(27,36,88);fill-rule:nonzero;"/>
        </g>
        <g transform="matrix(2.68133,0,0,2.68133,-216.835,-1989.48)">
            <g transform="matrix(0.24,0,0,0.24,106.378,922.445)">
                <g transform="matrix(62.5,0,0,62.5,0,0)">
                    <path d="M0.528,-0.662L0.75,-0.662L0.75,-0.64C0.72,-0.638 0.698,-0.631 0.684,-0.62C0.669,-0.609 0.66,-0.596 0.657,-0.582C0.654,-0.568 0.652,-0.541 0.652,-0.5L0.652,-0.28C0.652,-0.224 0.65,-0.182 0.646,-0.155C0.641,-0.127 0.629,-0.101 0.608,-0.074C0.587,-0.048 0.557,-0.027 0.519,-0.011C0.481,0.004 0.437,0.012 0.387,0.012C0.328,0.012 0.278,0.002 0.238,-0.018C0.197,-0.038 0.168,-0.064 0.15,-0.095C0.133,-0.127 0.124,-0.17 0.124,-0.223L0.125,-0.291L0.125,-0.497C0.125,-0.55 0.123,-0.584 0.12,-0.599C0.117,-0.614 0.11,-0.625 0.1,-0.631C0.09,-0.637 0.069,-0.64 0.035,-0.64L0.02,-0.64L0.02,-0.662L0.322,-0.662L0.322,-0.64L0.309,-0.64C0.277,-0.64 0.255,-0.637 0.245,-0.632C0.235,-0.626 0.228,-0.616 0.225,-0.602C0.221,-0.587 0.22,-0.552 0.22,-0.497L0.22,-0.289C0.22,-0.216 0.223,-0.165 0.23,-0.135C0.236,-0.104 0.255,-0.078 0.286,-0.055C0.317,-0.033 0.358,-0.021 0.41,-0.021C0.45,-0.021 0.487,-0.029 0.52,-0.044C0.553,-0.059 0.577,-0.078 0.594,-0.101C0.61,-0.123 0.619,-0.147 0.623,-0.171C0.627,-0.195 0.628,-0.232 0.628,-0.284L0.628,-0.509C0.628,-0.547 0.626,-0.573 0.622,-0.588C0.618,-0.603 0.609,-0.615 0.595,-0.624C0.581,-0.632 0.559,-0.638 0.528,-0.64L0.528,-0.662Z" style="fill:rgb(27,36,88);fill-rule:nonzero;"/>
                </g>
                <g transform="matrix(62.5,0,0,62.5,48.1873,0)">
                    <path d="M0.138,-0.416L0.151,-0.416C0.158,-0.396 0.163,-0.368 0.164,-0.333C0.187,-0.361 0.212,-0.382 0.237,-0.396C0.263,-0.409 0.29,-0.416 0.318,-0.416C0.35,-0.416 0.376,-0.409 0.396,-0.396C0.417,-0.383 0.43,-0.366 0.436,-0.347C0.441,-0.328 0.444,-0.299 0.444,-0.262L0.444,-0.137C0.444,-0.091 0.445,-0.063 0.447,-0.053C0.448,-0.043 0.454,-0.035 0.462,-0.03C0.471,-0.025 0.487,-0.022 0.51,-0.022L0.51,-0L0.305,-0L0.305,-0.022L0.314,-0.022C0.338,-0.022 0.353,-0.026 0.36,-0.033C0.368,-0.04 0.372,-0.048 0.373,-0.057C0.374,-0.066 0.374,-0.093 0.374,-0.137L0.374,-0.266C0.374,-0.298 0.372,-0.32 0.369,-0.334C0.366,-0.347 0.358,-0.359 0.344,-0.37C0.331,-0.38 0.314,-0.385 0.293,-0.385C0.269,-0.385 0.247,-0.378 0.225,-0.364C0.203,-0.35 0.183,-0.329 0.164,-0.3L0.164,-0.137C0.164,-0.091 0.164,-0.063 0.166,-0.053C0.168,-0.043 0.173,-0.035 0.182,-0.03C0.191,-0.025 0.207,-0.022 0.23,-0.022L0.23,-0L0.028,-0L0.028,-0.022C0.05,-0.022 0.066,-0.025 0.075,-0.029C0.083,-0.034 0.089,-0.041 0.091,-0.05C0.093,-0.059 0.094,-0.088 0.094,-0.137L0.094,-0.256C0.094,-0.303 0.093,-0.331 0.092,-0.341C0.09,-0.351 0.085,-0.358 0.076,-0.364C0.067,-0.369 0.051,-0.371 0.028,-0.371L0.028,-0.394C0.064,-0.397 0.1,-0.405 0.138,-0.416Z" style="fill:rgb(27,36,88);fill-rule:nonzero;"/>
                </g>
                <g transform="matrix(62.5,0,0,62.5,81.3904,0)">
                    <path d="M0.067,-0.62C0.067,-0.634 0.072,-0.646 0.082,-0.656C0.092,-0.666 0.104,-0.671 0.118,-0.671C0.132,-0.671 0.144,-0.666 0.153,-0.656C0.163,-0.646 0.168,-0.634 0.168,-0.62C0.168,-0.606 0.163,-0.594 0.153,-0.583C0.144,-0.573 0.132,-0.568 0.118,-0.568C0.104,-0.568 0.092,-0.573 0.082,-0.583C0.072,-0.594 0.067,-0.606 0.067,-0.62ZM0.161,-0.416L0.161,-0.137C0.161,-0.095 0.162,-0.068 0.163,-0.057C0.164,-0.046 0.169,-0.037 0.177,-0.031C0.185,-0.025 0.2,-0.022 0.221,-0.022L0.231,-0.022L0.231,-0L0.016,-0L0.016,-0.022L0.032,-0.022C0.055,-0.022 0.07,-0.026 0.077,-0.032C0.084,-0.039 0.088,-0.047 0.09,-0.056C0.091,-0.066 0.091,-0.093 0.091,-0.137L0.091,-0.258C0.091,-0.305 0.089,-0.334 0.085,-0.344C0.08,-0.355 0.074,-0.361 0.067,-0.364C0.06,-0.366 0.047,-0.368 0.029,-0.368L0.016,-0.368L0.016,-0.39C0.074,-0.396 0.118,-0.405 0.15,-0.416L0.161,-0.416Z" style="fill:rgb(27,36,88);fill-rule:nonzero;"/>
                </g>
                <g transform="matrix(62.5,0,0,62.5,97.0154,0)">
                    <path d="M0.243,0.016L0.214,0.016L0.072,-0.305C0.058,-0.336 0.047,-0.355 0.039,-0.364C0.031,-0.372 0.018,-0.377 -0.001,-0.377L-0.001,-0.4L0.18,-0.4L0.18,-0.377C0.16,-0.377 0.146,-0.376 0.139,-0.373C0.132,-0.369 0.128,-0.363 0.128,-0.354C0.128,-0.347 0.134,-0.329 0.147,-0.302L0.255,-0.059L0.353,-0.275C0.368,-0.31 0.375,-0.332 0.375,-0.343C0.375,-0.365 0.359,-0.376 0.327,-0.377L0.327,-0.4L0.461,-0.4L0.461,-0.377C0.445,-0.376 0.431,-0.37 0.42,-0.357C0.408,-0.344 0.393,-0.315 0.373,-0.27L0.243,0.016Z" style="fill:rgb(27,36,88);fill-rule:nonzero;"/>
                </g>
            </g>
            <g transform="matrix(0.24,0,0,0.24,136.254,922.445)">
                <g transform="matrix(62.5,0,0,62.5,0,0)">
                    <path d="M0.399,-0.265L0.121,-0.265C0.119,-0.245 0.119,-0.231 0.119,-0.222C0.119,-0.151 0.13,-0.099 0.152,-0.063C0.174,-0.028 0.206,-0.01 0.25,-0.01C0.309,-0.01 0.351,-0.037 0.376,-0.09L0.399,-0.09C0.389,-0.057 0.368,-0.031 0.337,-0.012C0.306,0.007 0.273,0.016 0.236,0.016C0.202,0.016 0.17,0.008 0.14,-0.01C0.11,-0.027 0.086,-0.051 0.066,-0.082C0.047,-0.113 0.038,-0.151 0.038,-0.196C0.038,-0.259 0.056,-0.311 0.093,-0.353C0.13,-0.395 0.177,-0.416 0.232,-0.416C0.285,-0.416 0.325,-0.4 0.354,-0.368C0.383,-0.336 0.398,-0.302 0.399,-0.265ZM0.314,-0.284C0.315,-0.292 0.315,-0.298 0.315,-0.304C0.315,-0.333 0.307,-0.355 0.29,-0.371C0.274,-0.387 0.253,-0.395 0.229,-0.395C0.169,-0.395 0.134,-0.358 0.123,-0.284L0.314,-0.284Z" style="fill:rgb(27,36,88);fill-rule:nonzero;"/>
                </g>
                <g transform="matrix(62.5,0,0,62.5,27.3438,0)">
                    <path d="M0.167,-0.314C0.178,-0.343 0.196,-0.367 0.22,-0.387C0.245,-0.406 0.27,-0.416 0.293,-0.416C0.315,-0.416 0.332,-0.409 0.344,-0.396C0.357,-0.383 0.363,-0.369 0.363,-0.355C0.363,-0.346 0.36,-0.337 0.353,-0.331C0.347,-0.324 0.339,-0.32 0.33,-0.32C0.314,-0.32 0.301,-0.332 0.293,-0.356C0.287,-0.373 0.278,-0.381 0.267,-0.381C0.253,-0.381 0.236,-0.371 0.216,-0.352C0.197,-0.333 0.184,-0.313 0.179,-0.293C0.173,-0.272 0.17,-0.244 0.17,-0.208L0.17,-0.137C0.17,-0.095 0.171,-0.068 0.172,-0.057C0.173,-0.046 0.178,-0.037 0.186,-0.031C0.194,-0.025 0.209,-0.022 0.229,-0.022L0.243,-0.022L0.243,-0L0.031,-0L0.031,-0.022L0.041,-0.022C0.061,-0.022 0.074,-0.025 0.083,-0.031C0.091,-0.036 0.096,-0.043 0.098,-0.053C0.099,-0.063 0.1,-0.091 0.1,-0.137L0.1,-0.25C0.1,-0.293 0.1,-0.32 0.098,-0.331C0.097,-0.342 0.093,-0.35 0.084,-0.356C0.076,-0.362 0.062,-0.365 0.041,-0.365L0.031,-0.365L0.031,-0.387C0.061,-0.391 0.101,-0.4 0.151,-0.416C0.16,-0.39 0.166,-0.356 0.167,-0.314Z" style="fill:rgb(27,36,88);fill-rule:nonzero;"/>
                </g>
                <g transform="matrix(62.5,0,0,62.5,50.7507,0)">
                    <path d="M0.041,0.013L0.041,-0.119L0.06,-0.119C0.082,-0.043 0.121,-0.005 0.178,-0.005C0.203,-0.005 0.221,-0.012 0.234,-0.027C0.246,-0.042 0.252,-0.059 0.252,-0.077C0.252,-0.097 0.245,-0.115 0.232,-0.128C0.219,-0.141 0.193,-0.157 0.155,-0.176C0.114,-0.196 0.085,-0.216 0.068,-0.235C0.05,-0.254 0.042,-0.277 0.042,-0.305C0.042,-0.331 0.051,-0.356 0.07,-0.38C0.089,-0.404 0.115,-0.416 0.149,-0.416C0.184,-0.416 0.213,-0.402 0.236,-0.374C0.241,-0.378 0.247,-0.39 0.255,-0.409L0.273,-0.409L0.273,-0.286L0.255,-0.286C0.248,-0.315 0.236,-0.341 0.217,-0.362C0.198,-0.383 0.176,-0.394 0.151,-0.394C0.131,-0.394 0.116,-0.388 0.104,-0.376C0.091,-0.364 0.085,-0.35 0.085,-0.334C0.085,-0.316 0.092,-0.301 0.105,-0.289C0.118,-0.276 0.143,-0.261 0.18,-0.244C0.236,-0.219 0.269,-0.195 0.282,-0.171C0.294,-0.147 0.3,-0.124 0.3,-0.102C0.3,-0.067 0.289,-0.038 0.266,-0.017C0.243,0.005 0.214,0.016 0.179,0.016C0.142,0.016 0.11,0.001 0.081,-0.029C0.072,-0.02 0.065,-0.006 0.06,0.013L0.041,0.013Z" style="fill:rgb(27,36,88);fill-rule:nonzero;"/>
                </g>
                <g transform="matrix(62.5,0,0,62.5,71.5942,0)">
                    <path d="M0.067,-0.62C0.067,-0.634 0.072,-0.646 0.082,-0.656C0.092,-0.666 0.104,-0.671 0.118,-0.671C0.132,-0.671 0.144,-0.666 0.153,-0.656C0.163,-0.646 0.168,-0.634 0.168,-0.62C0.168,-0.606 0.163,-0.594 0.153,-0.583C0.144,-0.573 0.132,-0.568 0.118,-0.568C0.104,-0.568 0.092,-0.573 0.082,-0.583C0.072,-0.594 0.067,-0.606 0.067,-0.62ZM0.161,-0.416L0.161,-0.137C0.161,-0.095 0.162,-0.068 0.163,-0.057C0.164,-0.046 0.169,-0.037 0.177,-0.031C0.185,-0.025 0.2,-0.022 0.221,-0.022L0.231,-0.022L0.231,-0L0.016,-0L0.016,-0.022L0.032,-0.022C0.055,-0.022 0.07,-0.026 0.077,-0.032C0.084,-0.039 0.088,-0.047 0.09,-0.056C0.091,-0.066 0.091,-0.093 0.091,-0.137L0.091,-0.258C0.091,-0.305 0.089,-0.334 0.085,-0.344C0.08,-0.355 0.074,-0.361 0.067,-0.364C0.06,-0.366 0.047,-0.368 0.029,-0.368L0.016,-0.368L0.016,-0.39C0.074,-0.396 0.118,-0.405 0.15,-0.416L0.161,-0.416Z" style="fill:rgb(27,36,88);fill-rule:nonzero;"/>
                </g>
                <g transform="matrix(62.5,0,0,62.5,87.2192,0)">
                    <path d="M0.274,-0.377L0.154,-0.377L0.154,-0.136C0.154,-0.099 0.155,-0.074 0.159,-0.061C0.162,-0.048 0.169,-0.038 0.179,-0.03C0.19,-0.022 0.201,-0.018 0.213,-0.018C0.237,-0.018 0.257,-0.031 0.274,-0.058L0.29,-0.049C0.28,-0.027 0.265,-0.011 0.245,-0C0.226,0.011 0.206,0.016 0.186,0.016C0.162,0.016 0.142,0.009 0.124,-0.005C0.106,-0.018 0.095,-0.035 0.091,-0.053C0.086,-0.072 0.084,-0.104 0.084,-0.151L0.084,-0.377L0.026,-0.377L0.026,-0.4C0.053,-0.401 0.076,-0.412 0.098,-0.434C0.119,-0.455 0.132,-0.486 0.138,-0.525L0.154,-0.525L0.154,-0.4L0.274,-0.4L0.274,-0.377Z" style="fill:rgb(27,36,88);fill-rule:nonzero;"/>
                </g>
                <g transform="matrix(62.5,0,0,62.5,105.438,0)">
                    <path d="M0.259,-0.076L0.352,-0.298C0.365,-0.33 0.372,-0.348 0.372,-0.352C0.372,-0.368 0.354,-0.377 0.318,-0.377L0.318,-0.4L0.458,-0.4L0.458,-0.377C0.437,-0.376 0.421,-0.371 0.411,-0.36C0.401,-0.35 0.388,-0.326 0.373,-0.29L0.195,0.14C0.178,0.181 0.163,0.209 0.15,0.224C0.137,0.239 0.123,0.246 0.107,0.246C0.086,0.246 0.075,0.236 0.075,0.217C0.075,0.195 0.092,0.176 0.126,0.161C0.146,0.152 0.159,0.145 0.166,0.139C0.172,0.132 0.179,0.121 0.186,0.105L0.224,0.01L0.073,-0.313C0.06,-0.341 0.049,-0.359 0.04,-0.366C0.031,-0.374 0.016,-0.377 -0.005,-0.377L-0.005,-0.4L0.179,-0.4L0.179,-0.377C0.146,-0.376 0.13,-0.37 0.13,-0.357C0.13,-0.353 0.137,-0.337 0.149,-0.31L0.259,-0.076Z" style="fill:rgb(27,36,88);fill-rule:nonzero;"/>
                </g>
                <g transform="matrix(62.5,0,0,62.5,147.233,0)">
                    <path d="M0.037,-0.201C0.037,-0.262 0.058,-0.313 0.099,-0.354C0.14,-0.395 0.19,-0.416 0.25,-0.416C0.31,-0.416 0.361,-0.395 0.402,-0.354C0.443,-0.313 0.463,-0.262 0.463,-0.201C0.463,-0.133 0.443,-0.08 0.401,-0.042C0.359,-0.003 0.309,0.016 0.25,0.016C0.191,0.016 0.141,-0.003 0.099,-0.043C0.058,-0.082 0.037,-0.135 0.037,-0.201ZM0.118,-0.198C0.118,-0.127 0.13,-0.078 0.153,-0.049C0.176,-0.021 0.208,-0.006 0.25,-0.006C0.293,-0.006 0.325,-0.021 0.348,-0.049C0.371,-0.078 0.382,-0.127 0.382,-0.198C0.382,-0.269 0.371,-0.319 0.348,-0.349C0.326,-0.379 0.293,-0.394 0.25,-0.394C0.207,-0.394 0.175,-0.379 0.152,-0.349C0.129,-0.319 0.118,-0.269 0.118,-0.198Z" style="fill:rgb(27,36,88);fill-rule:nonzero;"/>
                </g>
                <g transform="matrix(62.5,0,0,62.5,178.483,0)">
                    <path d="M0.243,-0.4L0.243,-0.377L0.16,-0.377L0.16,-0.137C0.16,-0.095 0.16,-0.068 0.161,-0.057C0.163,-0.046 0.167,-0.037 0.175,-0.031C0.183,-0.025 0.198,-0.022 0.219,-0.022L0.24,-0.022L0.24,-0L0.023,-0L0.023,-0.022C0.046,-0.022 0.061,-0.025 0.07,-0.029C0.079,-0.034 0.084,-0.041 0.086,-0.05C0.088,-0.059 0.089,-0.088 0.089,-0.137L0.089,-0.377L0.015,-0.377L0.015,-0.4L0.089,-0.4L0.089,-0.436C0.089,-0.476 0.091,-0.508 0.094,-0.53C0.097,-0.552 0.107,-0.575 0.122,-0.598C0.137,-0.622 0.156,-0.64 0.179,-0.653C0.202,-0.666 0.229,-0.672 0.261,-0.672C0.299,-0.672 0.33,-0.664 0.353,-0.648C0.376,-0.632 0.388,-0.616 0.388,-0.599C0.388,-0.59 0.384,-0.582 0.378,-0.576C0.371,-0.569 0.364,-0.566 0.355,-0.566C0.338,-0.566 0.322,-0.58 0.308,-0.606C0.292,-0.636 0.271,-0.65 0.246,-0.65C0.225,-0.65 0.207,-0.643 0.192,-0.628C0.176,-0.613 0.167,-0.595 0.164,-0.573C0.161,-0.551 0.16,-0.503 0.16,-0.43L0.16,-0.4L0.243,-0.4Z" style="fill:rgb(27,36,88);fill-rule:nonzero;"/>
                </g>
            </g>
            <g transform="matrix(0.24,0,0,0.24,188.303,922.445)">
                <g transform="matrix(62.5,0,0,62.5,0,0)">
                    <path d="M0.69,0.016L0.668,0.016L0.466,-0.53L0.29,0.016L0.267,0.016L0.107,-0.5C0.093,-0.546 0.082,-0.578 0.076,-0.593C0.07,-0.608 0.061,-0.62 0.051,-0.627C0.041,-0.635 0.024,-0.639 0,-0.64L0,-0.662L0.249,-0.662L0.249,-0.64C0.219,-0.638 0.199,-0.633 0.191,-0.627C0.182,-0.62 0.178,-0.611 0.178,-0.599C0.178,-0.588 0.185,-0.56 0.199,-0.516L0.317,-0.13L0.49,-0.662L0.517,-0.662L0.711,-0.13L0.813,-0.482C0.826,-0.529 0.833,-0.561 0.833,-0.575C0.833,-0.618 0.81,-0.64 0.764,-0.64L0.764,-0.662L0.944,-0.662L0.944,-0.64C0.918,-0.638 0.898,-0.628 0.885,-0.61C0.872,-0.592 0.855,-0.55 0.835,-0.482L0.69,0.016Z" style="fill:rgb(27,36,88);fill-rule:nonzero;"/>
                </g>
                <g transform="matrix(62.5,0,0,62.5,56.9153,0)">
                    <path d="M0.067,-0.62C0.067,-0.634 0.072,-0.646 0.082,-0.656C0.092,-0.666 0.104,-0.671 0.118,-0.671C0.132,-0.671 0.144,-0.666 0.153,-0.656C0.163,-0.646 0.168,-0.634 0.168,-0.62C0.168,-0.606 0.163,-0.594 0.153,-0.583C0.144,-0.573 0.132,-0.568 0.118,-0.568C0.104,-0.568 0.092,-0.573 0.082,-0.583C0.072,-0.594 0.067,-0.606 0.067,-0.62ZM0.161,-0.416L0.161,-0.137C0.161,-0.095 0.162,-0.068 0.163,-0.057C0.164,-0.046 0.169,-0.037 0.177,-0.031C0.185,-0.025 0.2,-0.022 0.221,-0.022L0.231,-0.022L0.231,-0L0.016,-0L0.016,-0.022L0.032,-0.022C0.055,-0.022 0.07,-0.026 0.077,-0.032C0.084,-0.039 0.088,-0.047 0.09,-0.056C0.091,-0.066 0.091,-0.093 0.091,-0.137L0.091,-0.258C0.091,-0.305 0.089,-0.334 0.085,-0.344C0.08,-0.355 0.074,-0.361 0.067,-0.364C0.06,-0.366 0.047,-0.368 0.029,-0.368L0.016,-0.368L0.016,-0.39C0.074,-0.396 0.118,-0.405 0.15,-0.416L0.161,-0.416Z" style="fill:rgb(27,36,88);fill-rule:nonzero;"/>
                </g>
                <g transform="matrix(62.5,0,0,62.5,72.5403,0)">
                    <path d="M0.041,0.013L0.041,-0.119L0.06,-0.119C0.082,-0.043 0.121,-0.005 0.178,-0.005C0.203,-0.005 0.221,-0.012 0.234,-0.027C0.246,-0.042 0.252,-0.059 0.252,-0.077C0.252,-0.097 0.245,-0.115 0.232,-0.128C0.219,-0.141 0.193,-0.157 0.155,-0.176C0.114,-0.196 0.085,-0.216 0.068,-0.235C0.05,-0.254 0.042,-0.277 0.042,-0.305C0.042,-0.331 0.051,-0.356 0.07,-0.38C0.089,-0.404 0.115,-0.416 0.149,-0.416C0.184,-0.416 0.213,-0.402 0.236,-0.374C0.241,-0.378 0.247,-0.39 0.255,-0.409L0.273,-0.409L0.273,-0.286L0.255,-0.286C0.248,-0.315 0.236,-0.341 0.217,-0.362C0.198,-0.383 0.176,-0.394 0.151,-0.394C0.131,-0.394 0.116,-0.388 0.104,-0.376C0.091,-0.364 0.085,-0.35 0.085,-0.334C0.085,-0.316 0.092,-0.301 0.105,-0.289C0.118,-0.276 0.143,-0.261 0.18,-0.244C0.236,-0.219 0.269,-0.195 0.282,-0.171C0.294,-0.147 0.3,-0.124 0.3,-0.102C0.3,-0.067 0.289,-0.038 0.266,-0.017C0.243,0.005 0.214,0.016 0.179,0.016C0.142,0.016 0.11,0.001 0.081,-0.029C0.072,-0.02 0.065,-0.006 0.06,0.013L0.041,0.013Z" style="fill:rgb(27,36,88);fill-rule:nonzero;"/>
                </g>
                <g transform="matrix(62.5,0,0,62.5,93.3838,0)">
                    <path d="M0.382,-0.098L0.404,-0.098C0.382,-0.022 0.326,0.016 0.238,0.016C0.181,0.016 0.133,-0.003 0.094,-0.042C0.055,-0.081 0.036,-0.132 0.036,-0.196C0.036,-0.261 0.057,-0.314 0.099,-0.355C0.141,-0.396 0.19,-0.416 0.248,-0.416C0.282,-0.416 0.314,-0.408 0.343,-0.393C0.372,-0.378 0.386,-0.36 0.386,-0.338C0.386,-0.33 0.384,-0.322 0.378,-0.315C0.373,-0.308 0.365,-0.304 0.355,-0.304C0.333,-0.304 0.32,-0.317 0.315,-0.342C0.312,-0.361 0.306,-0.374 0.297,-0.381C0.289,-0.389 0.272,-0.393 0.248,-0.393C0.204,-0.393 0.172,-0.377 0.15,-0.347C0.128,-0.317 0.117,-0.271 0.117,-0.21C0.117,-0.148 0.128,-0.098 0.152,-0.063C0.176,-0.028 0.211,-0.01 0.259,-0.01C0.324,-0.01 0.365,-0.039 0.382,-0.098Z" style="fill:rgb(27,36,88);fill-rule:nonzero;"/>
                </g>
                <g transform="matrix(62.5,0,0,62.5,120.087,0)">
                    <path d="M0.037,-0.201C0.037,-0.262 0.058,-0.313 0.099,-0.354C0.14,-0.395 0.19,-0.416 0.25,-0.416C0.31,-0.416 0.361,-0.395 0.402,-0.354C0.443,-0.313 0.463,-0.262 0.463,-0.201C0.463,-0.133 0.443,-0.08 0.401,-0.042C0.359,-0.003 0.309,0.016 0.25,0.016C0.191,0.016 0.141,-0.003 0.099,-0.043C0.058,-0.082 0.037,-0.135 0.037,-0.201ZM0.118,-0.198C0.118,-0.127 0.13,-0.078 0.153,-0.049C0.176,-0.021 0.208,-0.006 0.25,-0.006C0.293,-0.006 0.325,-0.021 0.348,-0.049C0.371,-0.078 0.382,-0.127 0.382,-0.198C0.382,-0.269 0.371,-0.319 0.348,-0.349C0.326,-0.379 0.293,-0.394 0.25,-0.394C0.207,-0.394 0.175,-0.379 0.152,-0.349C0.129,-0.319 0.118,-0.269 0.118,-0.198Z" style="fill:rgb(27,36,88);fill-rule:nonzero;"/>
                </g>
                <g transform="matrix(62.5,0,0,62.5,151.337,0)">
                    <path d="M0.138,-0.416L0.151,-0.416C0.158,-0.396 0.163,-0.368 0.164,-0.333C0.187,-0.361 0.212,-0.382 0.237,-0.396C0.263,-0.409 0.29,-0.416 0.318,-0.416C0.35,-0.416 0.376,-0.409 0.396,-0.396C0.417,-0.383 0.43,-0.366 0.436,-0.347C0.441,-0.328 0.444,-0.299 0.444,-0.262L0.444,-0.137C0.444,-0.091 0.445,-0.063 0.447,-0.053C0.448,-0.043 0.454,-0.035 0.462,-0.03C0.471,-0.025 0.487,-0.022 0.51,-0.022L0.51,-0L0.305,-0L0.305,-0.022L0.314,-0.022C0.338,-0.022 0.353,-0.026 0.36,-0.033C0.368,-0.04 0.372,-0.048 0.373,-0.057C0.374,-0.066 0.374,-0.093 0.374,-0.137L0.374,-0.266C0.374,-0.298 0.372,-0.32 0.369,-0.334C0.366,-0.347 0.358,-0.359 0.344,-0.37C0.331,-0.38 0.314,-0.385 0.293,-0.385C0.269,-0.385 0.247,-0.378 0.225,-0.364C0.203,-0.35 0.183,-0.329 0.164,-0.3L0.164,-0.137C0.164,-0.091 0.164,-0.063 0.166,-0.053C0.168,-0.043 0.173,-0.035 0.182,-0.03C0.191,-0.025 0.207,-0.022 0.23,-0.022L0.23,-0L0.028,-0L0.028,-0.022C0.05,-0.022 0.066,-0.025 0.075,-0.029C0.083,-0.034 0.089,-0.041 0.091,-0.05C0.093,-0.059 0.094,-0.088 0.094,-0.137L0.094,-0.256C0.094,-0.303 0.093,-0.331 0.092,-0.341C0.09,-0.351 0.085,-0.358 0.076,-0.364C0.067,-0.369 0.051,-0.371 0.028,-0.371L0.028,-0.394C0.064,-0.397 0.1,-0.405 0.138,-0.416Z" style="fill:rgb(27,36,88);fill-rule:nonzero;"/>
                </g>
                <g transform="matrix(62.5,0,0,62.5,184.54,0)">
                    <path d="M0.041,0.013L0.041,-0.119L0.06,-0.119C0.082,-0.043 0.121,-0.005 0.178,-0.005C0.203,-0.005 0.221,-0.012 0.234,-0.027C0.246,-0.042 0.252,-0.059 0.252,-0.077C0.252,-0.097 0.245,-0.115 0.232,-0.128C0.219,-0.141 0.193,-0.157 0.155,-0.176C0.114,-0.196 0.085,-0.216 0.068,-0.235C0.05,-0.254 0.042,-0.277 0.042,-0.305C0.042,-0.331 0.051,-0.356 0.07,-0.38C0.089,-0.404 0.115,-0.416 0.149,-0.416C0.184,-0.416 0.213,-0.402 0.236,-0.374C0.241,-0.378 0.247,-0.39 0.255,-0.409L0.273,-0.409L0.273,-0.286L0.255,-0.286C0.248,-0.315 0.236,-0.341 0.217,-0.362C0.198,-0.383 0.176,-0.394 0.151,-0.394C0.131,-0.394 0.116,-0.388 0.104,-0.376C0.091,-0.364 0.085,-0.35 0.085,-0.334C0.085,-0.316 0.092,-0.301 0.105,-0.289C0.118,-0.276 0.143,-0.261 0.18,-0.244C0.236,-0.219 0.269,-0.195 0.282,-0.171C0.294,-0.147 0.3,-0.124 0.3,-0.102C0.3,-0.067 0.289,-0.038 0.266,-0.017C0.243,0.005 0.214,0.016 0.179,0.016C0.142,0.016 0.11,0.001 0.081,-0.029C0.072,-0.02 0.065,-0.006 0.06,0.013L0.041,0.013Z" style="fill:rgb(27,36,88);fill-rule:nonzero;"/>
                </g>
                <g transform="matrix(62.5,0,0,62.5,205.383,0)">
                    <path d="M0.067,-0.62C0.067,-0.634 0.072,-0.646 0.082,-0.656C0.092,-0.666 0.104,-0.671 0.118,-0.671C0.132,-0.671 0.144,-0.666 0.153,-0.656C0.163,-0.646 0.168,-0.634 0.168,-0.62C0.168,-0.606 0.163,-0.594 0.153,-0.583C0.144,-0.573 0.132,-0.568 0.118,-0.568C0.104,-0.568 0.092,-0.573 0.082,-0.583C0.072,-0.594 0.067,-0.606 0.067,-0.62ZM0.161,-0.416L0.161,-0.137C0.161,-0.095 0.162,-0.068 0.163,-0.057C0.164,-0.046 0.169,-0.037 0.177,-0.031C0.185,-0.025 0.2,-0.022 0.221,-0.022L0.231,-0.022L0.231,-0L0.016,-0L0.016,-0.022L0.032,-0.022C0.055,-0.022 0.07,-0.026 0.077,-0.032C0.084,-0.039 0.088,-0.047 0.09,-0.056C0.091,-0.066 0.091,-0.093 0.091,-0.137L0.091,-0.258C0.091,-0.305 0.089,-0.334 0.085,-0.344C0.08,-0.355 0.074,-0.361 0.067,-0.364C0.06,-0.366 0.047,-0.368 0.029,-0.368L0.016,-0.368L0.016,-0.39C0.074,-0.396 0.118,-0.405 0.15,-0.416L0.161,-0.416Z" style="fill:rgb(27,36,88);fill-rule:nonzero;"/>
                </g>
                <g transform="matrix(62.5,0,0,62.5,221.008,0)">
                    <path d="M0.138,-0.416L0.151,-0.416C0.158,-0.396 0.163,-0.368 0.164,-0.333C0.187,-0.361 0.212,-0.382 0.237,-0.396C0.263,-0.409 0.29,-0.416 0.318,-0.416C0.35,-0.416 0.376,-0.409 0.396,-0.396C0.417,-0.383 0.43,-0.366 0.436,-0.347C0.441,-0.328 0.444,-0.299 0.444,-0.262L0.444,-0.137C0.444,-0.091 0.445,-0.063 0.447,-0.053C0.448,-0.043 0.454,-0.035 0.462,-0.03C0.471,-0.025 0.487,-0.022 0.51,-0.022L0.51,-0L0.305,-0L0.305,-0.022L0.314,-0.022C0.338,-0.022 0.353,-0.026 0.36,-0.033C0.368,-0.04 0.372,-0.048 0.373,-0.057C0.374,-0.066 0.374,-0.093 0.374,-0.137L0.374,-0.266C0.374,-0.298 0.372,-0.32 0.369,-0.334C0.366,-0.347 0.358,-0.359 0.344,-0.37C0.331,-0.38 0.314,-0.385 0.293,-0.385C0.269,-0.385 0.247,-0.378 0.225,-0.364C0.203,-0.35 0.183,-0.329 0.164,-0.3L0.164,-0.137C0.164,-0.091 0.164,-0.063 0.166,-0.053C0.168,-0.043 0.173,-0.035 0.182,-0.03C0.191,-0.025 0.207,-0.022 0.23,-0.022L0.23,-0L0.028,-0L0.028,-0.022C0.05,-0.022 0.066,-0.025 0.075,-0.029C0.083,-0.034 0.089,-0.041 0.091,-0.05C0.093,-0.059 0.094,-0.088 0.094,-0.137L0.094,-0.256C0.094,-0.303 0.093,-0.331 0.092,-0.341C0.09,-0.351 0.085,-0.358 0.076,-0.364C0.067,-0.369 0.051,-0.371 0.028,-0.371L0.028,-0.394C0.064,-0.397 0.1,-0.405 0.138,-0.416Z" style="fill:rgb(27,36,88);fill-rule:nonzero;"/>
                </g>
            </g>
            <g transform="matrix(0.24,0,0,0.24,102.212,954.444)">
                <g transform="matrix(125,0,0,125,0,0)">
                    <path d="M0.287,-0.316L0.287,-0.153C0.287,-0.122 0.289,-0.101 0.292,-0.092C0.296,-0.082 0.306,-0.074 0.321,-0.068C0.337,-0.061 0.361,-0.058 0.393,-0.058C0.436,-0.058 0.468,-0.063 0.488,-0.074C0.508,-0.085 0.527,-0.104 0.543,-0.131C0.559,-0.158 0.57,-0.187 0.578,-0.217L0.632,-0.217L0.628,-0L0.022,-0L0.022,-0.054L0.035,-0.054C0.068,-0.054 0.089,-0.06 0.099,-0.073C0.109,-0.085 0.114,-0.106 0.114,-0.135L0.114,-0.528C0.114,-0.558 0.109,-0.579 0.098,-0.591C0.088,-0.603 0.067,-0.609 0.035,-0.609L0.022,-0.609L0.022,-0.662L0.586,-0.662L0.596,-0.491L0.542,-0.491C0.532,-0.521 0.521,-0.545 0.509,-0.562C0.497,-0.58 0.485,-0.591 0.472,-0.596C0.46,-0.601 0.44,-0.604 0.411,-0.604L0.287,-0.604L0.287,-0.375L0.349,-0.375C0.378,-0.375 0.397,-0.381 0.407,-0.392C0.417,-0.403 0.422,-0.425 0.423,-0.458L0.479,-0.458L0.479,-0.233L0.423,-0.233C0.424,-0.237 0.424,-0.24 0.424,-0.242C0.424,-0.261 0.42,-0.278 0.412,-0.293C0.404,-0.309 0.383,-0.316 0.351,-0.316L0.287,-0.316Z" style="fill:rgb(252,176,22);fill-rule:nonzero;"/>
                </g>
                <g transform="matrix(125,0,0,125,83.313,0)">
                    <path d="M0.316,-0.042C0.293,-0.025 0.268,-0.012 0.242,-0.004C0.216,0.005 0.189,0.009 0.161,0.009C0.123,0.009 0.095,0.001 0.076,-0.016C0.058,-0.033 0.048,-0.054 0.048,-0.079C0.048,-0.115 0.067,-0.146 0.104,-0.173C0.142,-0.201 0.21,-0.231 0.308,-0.264L0.308,-0.3C0.308,-0.326 0.301,-0.343 0.289,-0.35C0.277,-0.357 0.262,-0.361 0.245,-0.361C0.204,-0.361 0.181,-0.346 0.177,-0.316C0.174,-0.295 0.167,-0.281 0.157,-0.271C0.147,-0.262 0.132,-0.257 0.112,-0.257C0.093,-0.257 0.079,-0.262 0.068,-0.272C0.057,-0.282 0.051,-0.294 0.051,-0.307C0.051,-0.337 0.071,-0.363 0.111,-0.384C0.151,-0.405 0.205,-0.416 0.272,-0.416C0.309,-0.416 0.341,-0.414 0.366,-0.409C0.391,-0.405 0.412,-0.396 0.427,-0.384C0.442,-0.371 0.453,-0.358 0.458,-0.345C0.463,-0.331 0.465,-0.313 0.465,-0.289L0.465,-0.104C0.465,-0.076 0.474,-0.062 0.491,-0.062C0.505,-0.062 0.515,-0.071 0.519,-0.089L0.559,-0.089C0.558,-0.055 0.546,-0.031 0.522,-0.015C0.499,0.001 0.47,0.009 0.438,0.009C0.378,0.009 0.337,-0.008 0.316,-0.042ZM0.308,-0.095L0.308,-0.209C0.262,-0.191 0.233,-0.174 0.219,-0.158C0.205,-0.143 0.198,-0.127 0.198,-0.111C0.198,-0.098 0.202,-0.087 0.21,-0.077C0.219,-0.067 0.229,-0.063 0.243,-0.063C0.254,-0.063 0.266,-0.065 0.276,-0.071C0.287,-0.076 0.298,-0.084 0.308,-0.095Z" style="fill:rgb(252,176,22);fill-rule:nonzero;"/>
                </g>
                <g transform="matrix(125,0,0,125,153.625,0)">
                    <path d="M0.368,-0.055C0.347,-0.031 0.324,-0.014 0.3,-0.002C0.275,0.01 0.249,0.016 0.22,0.016C0.184,0.016 0.151,0.006 0.122,-0.014C0.092,-0.034 0.078,-0.073 0.078,-0.13L0.078,-0.283C0.078,-0.308 0.074,-0.325 0.066,-0.334C0.058,-0.344 0.042,-0.348 0.017,-0.348L0.017,-0.4L0.235,-0.4L0.235,-0.139C0.235,-0.113 0.239,-0.095 0.247,-0.084C0.255,-0.073 0.267,-0.067 0.284,-0.067C0.297,-0.067 0.31,-0.073 0.324,-0.083C0.338,-0.093 0.353,-0.109 0.368,-0.13L0.368,-0.283C0.368,-0.308 0.364,-0.325 0.357,-0.334C0.349,-0.343 0.331,-0.348 0.303,-0.348L0.303,-0.4L0.526,-0.4L0.526,-0.117C0.526,-0.092 0.53,-0.075 0.538,-0.066C0.545,-0.056 0.564,-0.052 0.593,-0.052L0.593,-0C0.584,-0 0.576,-0 0.569,-0C0.509,-0 0.442,0.005 0.368,0.016L0.368,-0.055Z" style="fill:rgb(252,176,22);fill-rule:nonzero;"/>
                </g>
                <g transform="matrix(125,0,0,125,260.376,0)">
                    <path d="M0.685,-0.254L0.685,-0.006L0.63,-0.006C0.624,-0.032 0.615,-0.053 0.603,-0.069C0.548,-0.014 0.475,0.014 0.385,0.014C0.282,0.014 0.2,-0.02 0.139,-0.087C0.077,-0.154 0.046,-0.234 0.046,-0.326C0.046,-0.417 0.077,-0.497 0.138,-0.568C0.199,-0.639 0.283,-0.674 0.39,-0.674C0.471,-0.674 0.539,-0.647 0.595,-0.594C0.602,-0.611 0.609,-0.631 0.615,-0.653L0.669,-0.653L0.676,-0.409L0.622,-0.409C0.606,-0.475 0.58,-0.525 0.544,-0.559C0.507,-0.593 0.464,-0.61 0.415,-0.61C0.357,-0.61 0.314,-0.588 0.285,-0.543C0.256,-0.498 0.242,-0.428 0.242,-0.333C0.242,-0.265 0.247,-0.212 0.257,-0.173C0.268,-0.134 0.288,-0.104 0.319,-0.083C0.35,-0.061 0.383,-0.051 0.42,-0.051C0.468,-0.051 0.511,-0.068 0.549,-0.101C0.587,-0.135 0.614,-0.186 0.63,-0.254L0.685,-0.254Z" style="fill:rgb(252,176,22);fill-rule:nonzero;"/>
                </g>
                <g transform="matrix(125,0,0,125,354.126,0)">
                    <path d="M0.239,-0.674L0.239,-0.117C0.239,-0.092 0.243,-0.075 0.251,-0.065C0.259,-0.056 0.278,-0.052 0.307,-0.052L0.307,-0L0.01,-0L0.01,-0.052C0.036,-0.052 0.054,-0.055 0.065,-0.061C0.076,-0.067 0.081,-0.086 0.081,-0.117L0.081,-0.521C0.081,-0.547 0.077,-0.564 0.069,-0.573C0.06,-0.582 0.041,-0.586 0.01,-0.586L0.01,-0.638L0.239,-0.674Z" style="fill:rgb(252,176,22);fill-rule:nonzero;"/>
                </g>
                <g transform="matrix(125,0,0,125,393.188,0)">
                    <path d="M0.316,-0.042C0.293,-0.025 0.268,-0.012 0.242,-0.004C0.216,0.005 0.189,0.009 0.161,0.009C0.123,0.009 0.095,0.001 0.076,-0.016C0.058,-0.033 0.048,-0.054 0.048,-0.079C0.048,-0.115 0.067,-0.146 0.104,-0.173C0.142,-0.201 0.21,-0.231 0.308,-0.264L0.308,-0.3C0.308,-0.326 0.301,-0.343 0.289,-0.35C0.277,-0.357 0.262,-0.361 0.245,-0.361C0.204,-0.361 0.181,-0.346 0.177,-0.316C0.174,-0.295 0.167,-0.281 0.157,-0.271C0.147,-0.262 0.132,-0.257 0.112,-0.257C0.093,-0.257 0.079,-0.262 0.068,-0.272C0.057,-0.282 0.051,-0.294 0.051,-0.307C0.051,-0.337 0.071,-0.363 0.111,-0.384C0.151,-0.405 0.205,-0.416 0.272,-0.416C0.309,-0.416 0.341,-0.414 0.366,-0.409C0.391,-0.405 0.412,-0.396 0.427,-0.384C0.442,-0.371 0.453,-0.358 0.458,-0.345C0.463,-0.331 0.465,-0.313 0.465,-0.289L0.465,-0.104C0.465,-0.076 0.474,-0.062 0.491,-0.062C0.505,-0.062 0.515,-0.071 0.519,-0.089L0.559,-0.089C0.558,-0.055 0.546,-0.031 0.522,-0.015C0.499,0.001 0.47,0.009 0.438,0.009C0.378,0.009 0.337,-0.008 0.316,-0.042ZM0.308,-0.095L0.308,-0.209C0.262,-0.191 0.233,-0.174 0.219,-0.158C0.205,-0.143 0.198,-0.127 0.198,-0.111C0.198,-0.098 0.202,-0.087 0.21,-0.077C0.219,-0.067 0.229,-0.063 0.243,-0.063C0.254,-0.063 0.266,-0.065 0.276,-0.071C0.287,-0.076 0.298,-0.084 0.308,-0.095Z" style="fill:rgb(252,176,22);fill-rule:nonzero;"/>
                </g>
                <g transform="matrix(125,0,0,125,463.501,0)">
                    <path d="M0.085,-0.585C0.085,-0.61 0.094,-0.63 0.111,-0.648C0.129,-0.665 0.149,-0.674 0.173,-0.674C0.198,-0.674 0.218,-0.665 0.235,-0.648C0.252,-0.631 0.261,-0.61 0.261,-0.585C0.261,-0.561 0.252,-0.54 0.235,-0.523C0.218,-0.506 0.197,-0.497 0.173,-0.497C0.148,-0.497 0.127,-0.506 0.111,-0.524C0.094,-0.541 0.085,-0.562 0.085,-0.585ZM0.25,-0.416L0.25,-0.117C0.25,-0.092 0.254,-0.075 0.262,-0.066C0.27,-0.056 0.288,-0.052 0.316,-0.052L0.316,-0L0.018,-0L0.018,-0.052L0.029,-0.052C0.056,-0.052 0.074,-0.057 0.081,-0.066C0.089,-0.076 0.092,-0.093 0.092,-0.117L0.092,-0.262C0.092,-0.286 0.089,-0.303 0.081,-0.313C0.074,-0.322 0.056,-0.327 0.029,-0.327L0.018,-0.327L0.018,-0.379L0.25,-0.416Z" style="fill:rgb(252,176,22);fill-rule:nonzero;"/>
                </g>
                <g transform="matrix(125,0,0,125,505.188,0)">
                    <path d="M0.242,-0.315C0.261,-0.349 0.283,-0.374 0.307,-0.391C0.331,-0.408 0.357,-0.416 0.386,-0.416C0.414,-0.416 0.435,-0.407 0.449,-0.39C0.464,-0.372 0.471,-0.354 0.471,-0.333C0.471,-0.314 0.465,-0.297 0.454,-0.284C0.442,-0.27 0.426,-0.263 0.406,-0.263C0.395,-0.263 0.386,-0.265 0.378,-0.27C0.371,-0.274 0.362,-0.283 0.35,-0.296C0.338,-0.309 0.326,-0.315 0.312,-0.315C0.291,-0.315 0.275,-0.302 0.264,-0.277C0.254,-0.251 0.249,-0.212 0.249,-0.16L0.249,-0.117C0.249,-0.093 0.252,-0.076 0.26,-0.066C0.267,-0.057 0.285,-0.052 0.312,-0.052L0.321,-0.052L0.321,-0L0.025,-0L0.025,-0.052C0.053,-0.052 0.071,-0.056 0.079,-0.066C0.086,-0.075 0.09,-0.092 0.09,-0.117L0.09,-0.256C0.09,-0.281 0.086,-0.298 0.078,-0.307C0.071,-0.317 0.053,-0.321 0.024,-0.321L0.024,-0.373L0.227,-0.416C0.236,-0.39 0.241,-0.356 0.242,-0.315Z" style="fill:rgb(252,176,22);fill-rule:nonzero;"/>
                </g>
                <g transform="matrix(125,0,0,125,565.063,0)">
                    <path d="M0.213,-0.205C0.213,-0.152 0.222,-0.112 0.24,-0.085C0.259,-0.058 0.286,-0.045 0.322,-0.045C0.36,-0.045 0.396,-0.064 0.428,-0.104L0.473,-0.076C0.455,-0.049 0.428,-0.027 0.393,-0.01C0.359,0.007 0.32,0.016 0.278,0.016C0.214,0.016 0.159,-0.003 0.113,-0.043C0.067,-0.082 0.044,-0.135 0.044,-0.202C0.044,-0.268 0.066,-0.321 0.111,-0.359C0.155,-0.397 0.208,-0.416 0.271,-0.416C0.334,-0.416 0.385,-0.399 0.426,-0.364C0.466,-0.329 0.486,-0.276 0.486,-0.205L0.213,-0.205ZM0.213,-0.254L0.336,-0.254C0.334,-0.326 0.313,-0.362 0.273,-0.362C0.253,-0.362 0.238,-0.353 0.228,-0.335C0.218,-0.317 0.213,-0.29 0.213,-0.254Z" style="fill:rgb(252,176,22);fill-rule:nonzero;"/>
                </g>
            </g>
        </g>
    </g>
</svg>
