<?xml version="1.0" encoding="UTF-8" standalone="no"?>
<!DOCTYPE svg PUBLIC "-//W3C//DTD SVG 1.1//EN" "http://www.w3.org/Graphics/SVG/1.1/DTD/svg11.dtd">
<svg width="100%" height="100%" viewBox="0 0 520 571" version="1.1" xmlns="http://www.w3.org/2000/svg" xmlns:xlink="http://www.w3.org/1999/xlink" xml:space="preserve" xmlns:serif="http://www.serif.com/" style="fill-rule:evenodd;clip-rule:evenodd;stroke-linejoin:round;stroke-miterlimit:2;">
    <g id="Layer3">
        <g transform="matrix(2.09637,0,0,2.09637,-799.961,-786.189)">
            <path d="M547.163,436.197L521.755,461.606L531.569,471.419L556.976,446.01L547.163,436.197Z" style="fill:rgb(242,102,40);fill-rule:nonzero;"/>
            <path d="M495.804,487.557L470.396,512.966L480.209,522.778L505.617,497.37L495.804,487.557Z" style="fill:rgb(242,102,40);fill-rule:nonzero;"/>
            <path d="M515.43,455.28L540.838,429.872L531.025,420.059L505.617,445.467L515.43,455.28Z" style="fill:rgb(242,102,40);fill-rule:nonzero;"/>
            <path d="M489.478,481.232L479.665,471.419L454.257,496.826L464.07,506.639L489.478,481.232Z" style="fill:rgb(242,102,40);fill-rule:nonzero;"/>
            <path d="M489.478,461.606L464.07,436.197L454.257,446.01L479.665,471.419L489.478,461.606Z" style="fill:rgb(242,102,40);fill-rule:nonzero;"/>
            <path d="M495.804,455.28L505.617,445.467L480.209,420.059L470.396,429.872L495.804,455.28Z" style="fill:rgb(242,102,40);fill-rule:nonzero;"/>
            <path d="M521.755,481.232L547.163,506.639L556.976,496.826L531.569,471.419L521.755,481.232Z" style="fill:rgb(242,102,40);fill-rule:nonzero;"/>
            <path d="M540.838,512.966L515.43,487.557L505.617,497.37L531.025,522.778L540.838,512.966Z" style="fill:rgb(242,102,40);fill-rule:nonzero;"/>
            <path d="M540.838,532.591L531.025,522.778L505.617,548.186L480.209,522.778L470.396,532.591L505.617,567.812L540.838,532.591Z" style="fill:rgb(27,41,56);fill-rule:nonzero;"/>
            <path d="M454.257,446.01L444.444,436.197L409.223,471.419L444.444,506.639L454.257,496.826L428.849,471.419L454.257,446.01Z" style="fill:rgb(27,41,56);fill-rule:nonzero;"/>
            <path d="M566.789,436.197L556.976,446.01L582.385,471.419L556.976,496.826L566.789,506.639L602.01,471.419L566.789,436.197Z" style="fill:rgb(27,41,56);fill-rule:nonzero;"/>
            <path d="M531.025,420.059L540.838,410.246L505.617,375.024L470.396,410.246L480.209,420.059L505.617,394.65L531.025,420.059Z" style="fill:rgb(27,41,56);fill-rule:nonzero;"/>
        </g>
        <g transform="matrix(2.09637,0,0,2.09637,-802.209,-786.189)">
            <g transform="matrix(72,0,0,72,438.793,629.802)">
                <path d="M0.078,-0.708L0.245,-0.708L0.574,-0.178L0.576,-0.178L0.576,-0.708L0.702,-0.708L0.702,-0L0.542,-0L0.206,-0.547L0.204,-0.547L0.204,-0L0.078,-0L0.078,-0.708Z" style="fill:rgb(27,41,56);fill-rule:nonzero;"/>
            </g>
            <g transform="matrix(72,0,0,72,498.553,629.802)">
                <rect x="0.078" y="-0.708" width="0.126" height="0.708" style="fill:rgb(27,41,56);fill-rule:nonzero;"/>
            </g>
            <g transform="matrix(72,0,0,72,518.857,629.802)">
                <path d="M0.589,-0.542C0.57,-0.567 0.546,-0.586 0.516,-0.598C0.486,-0.609 0.457,-0.615 0.428,-0.615C0.391,-0.615 0.358,-0.608 0.328,-0.595C0.298,-0.582 0.272,-0.563 0.251,-0.54C0.229,-0.517 0.212,-0.489 0.201,-0.458C0.189,-0.427 0.183,-0.393 0.183,-0.356C0.183,-0.317 0.189,-0.282 0.2,-0.25C0.211,-0.218 0.228,-0.191 0.249,-0.168C0.27,-0.145 0.295,-0.127 0.324,-0.114C0.353,-0.101 0.386,-0.095 0.423,-0.095C0.461,-0.095 0.495,-0.102 0.524,-0.118C0.553,-0.133 0.577,-0.152 0.595,-0.177L0.696,-0.106C0.665,-0.067 0.626,-0.036 0.581,-0.015C0.536,0.007 0.483,0.018 0.422,0.018C0.367,0.018 0.316,0.009 0.27,-0.01C0.223,-0.028 0.183,-0.054 0.15,-0.087C0.117,-0.12 0.091,-0.159 0.072,-0.205C0.053,-0.25 0.044,-0.301 0.044,-0.356C0.044,-0.413 0.054,-0.464 0.074,-0.51C0.093,-0.555 0.12,-0.594 0.155,-0.626C0.189,-0.658 0.229,-0.683 0.276,-0.7C0.323,-0.717 0.373,-0.726 0.428,-0.726C0.451,-0.726 0.474,-0.724 0.499,-0.72C0.524,-0.715 0.547,-0.708 0.57,-0.7C0.593,-0.691 0.614,-0.679 0.634,-0.666C0.654,-0.653 0.671,-0.637 0.685,-0.618L0.589,-0.542Z" style="fill:rgb(27,41,56);fill-rule:nonzero;"/>
            </g>
        </g>
        <g transform="matrix(0.50313,0,0,0.50313,-797.636,-718.687)">
            <g>
                <g transform="matrix(50,0,0,50,1728.74,2551.33)">
                    <path d="M0.094,-0.708L0.329,-0.708C0.373,-0.708 0.417,-0.701 0.462,-0.686C0.506,-0.671 0.546,-0.649 0.582,-0.62C0.617,-0.59 0.646,-0.553 0.668,-0.509C0.69,-0.464 0.701,-0.413 0.701,-0.354C0.701,-0.295 0.69,-0.243 0.668,-0.199C0.646,-0.155 0.617,-0.118 0.582,-0.089C0.546,-0.059 0.506,-0.037 0.462,-0.022C0.417,-0.007 0.373,-0 0.329,-0L0.094,-0L0.094,-0.708ZM0.166,-0.064L0.309,-0.064C0.362,-0.064 0.409,-0.072 0.449,-0.089C0.488,-0.106 0.521,-0.128 0.547,-0.155C0.573,-0.182 0.592,-0.212 0.606,-0.247C0.619,-0.282 0.625,-0.317 0.625,-0.354C0.625,-0.391 0.619,-0.426 0.606,-0.461C0.592,-0.496 0.573,-0.527 0.547,-0.554C0.521,-0.58 0.488,-0.602 0.449,-0.619C0.409,-0.636 0.362,-0.644 0.309,-0.644L0.166,-0.644L0.166,-0.064Z" style="fill:rgb(27,41,56);fill-rule:nonzero;"/>
                </g>
                <g transform="matrix(50,0,0,50,1769.09,2551.33)">
                    <path d="M0.385,-0.302C0.385,-0.343 0.374,-0.373 0.353,-0.393C0.332,-0.413 0.301,-0.423 0.26,-0.423C0.232,-0.423 0.206,-0.418 0.182,-0.408C0.158,-0.398 0.138,-0.385 0.121,-0.368L0.083,-0.413C0.102,-0.432 0.128,-0.448 0.16,-0.461C0.191,-0.474 0.227,-0.48 0.267,-0.48C0.292,-0.48 0.316,-0.476 0.338,-0.47C0.36,-0.463 0.379,-0.452 0.396,-0.438C0.413,-0.424 0.426,-0.406 0.435,-0.385C0.444,-0.364 0.449,-0.339 0.449,-0.31L0.449,-0.105C0.449,-0.087 0.45,-0.068 0.451,-0.049C0.452,-0.03 0.454,-0.013 0.457,-0L0.396,-0C0.394,-0.011 0.392,-0.024 0.391,-0.037C0.39,-0.05 0.389,-0.063 0.389,-0.076L0.387,-0.076C0.366,-0.045 0.341,-0.022 0.315,-0.009C0.288,0.005 0.255,0.012 0.217,0.012C0.199,0.012 0.181,0.01 0.162,0.005C0.142,-0 0.125,-0.009 0.11,-0.02C0.094,-0.031 0.081,-0.046 0.071,-0.064C0.06,-0.082 0.055,-0.104 0.055,-0.13C0.055,-0.166 0.064,-0.195 0.083,-0.216C0.101,-0.237 0.125,-0.252 0.156,-0.263C0.187,-0.273 0.222,-0.28 0.262,-0.283C0.301,-0.286 0.342,-0.287 0.385,-0.287L0.385,-0.302ZM0.365,-0.234C0.337,-0.234 0.309,-0.233 0.281,-0.231C0.252,-0.228 0.227,-0.224 0.204,-0.217C0.181,-0.21 0.162,-0.199 0.147,-0.186C0.132,-0.173 0.125,-0.155 0.125,-0.133C0.125,-0.116 0.128,-0.102 0.135,-0.091C0.141,-0.08 0.149,-0.07 0.16,-0.064C0.171,-0.056 0.183,-0.051 0.196,-0.049C0.209,-0.046 0.222,-0.044 0.235,-0.044C0.259,-0.044 0.28,-0.048 0.299,-0.057C0.318,-0.065 0.333,-0.076 0.346,-0.091C0.359,-0.105 0.368,-0.121 0.375,-0.14C0.382,-0.159 0.385,-0.178 0.385,-0.199L0.385,-0.234L0.365,-0.234Z" style="fill:rgb(27,41,56);fill-rule:nonzero;"/>
                </g>
                <g transform="matrix(50,0,0,50,1795.29,2551.33)">
                    <path d="M0.301,-0.411L0.169,-0.411L0.169,-0.138C0.169,-0.121 0.171,-0.106 0.174,-0.095C0.177,-0.084 0.182,-0.075 0.189,-0.069C0.195,-0.062 0.202,-0.058 0.211,-0.056C0.22,-0.053 0.229,-0.052 0.239,-0.052C0.248,-0.052 0.258,-0.053 0.269,-0.056C0.279,-0.059 0.289,-0.062 0.298,-0.067L0.301,-0.008C0.289,-0.003 0.277,0 0.264,0.003C0.251,0.005 0.236,0.006 0.221,0.006C0.208,0.006 0.195,0.004 0.181,0.001C0.167,-0.002 0.154,-0.009 0.142,-0.018C0.13,-0.027 0.12,-0.04 0.113,-0.056C0.105,-0.072 0.101,-0.093 0.101,-0.119L0.101,-0.411L0.004,-0.411L0.004,-0.468L0.101,-0.468L0.101,-0.6L0.169,-0.6L0.169,-0.468L0.301,-0.468L0.301,-0.411Z" style="fill:rgb(27,41,56);fill-rule:nonzero;"/>
                </g>
                <g transform="matrix(50,0,0,50,1811.14,2551.33)">
                    <path d="M0.385,-0.302C0.385,-0.343 0.374,-0.373 0.353,-0.393C0.332,-0.413 0.301,-0.423 0.26,-0.423C0.232,-0.423 0.206,-0.418 0.182,-0.408C0.158,-0.398 0.138,-0.385 0.121,-0.368L0.083,-0.413C0.102,-0.432 0.128,-0.448 0.16,-0.461C0.191,-0.474 0.227,-0.48 0.267,-0.48C0.292,-0.48 0.316,-0.476 0.338,-0.47C0.36,-0.463 0.379,-0.452 0.396,-0.438C0.413,-0.424 0.426,-0.406 0.435,-0.385C0.444,-0.364 0.449,-0.339 0.449,-0.31L0.449,-0.105C0.449,-0.087 0.45,-0.068 0.451,-0.049C0.452,-0.03 0.454,-0.013 0.457,-0L0.396,-0C0.394,-0.011 0.392,-0.024 0.391,-0.037C0.39,-0.05 0.389,-0.063 0.389,-0.076L0.387,-0.076C0.366,-0.045 0.341,-0.022 0.315,-0.009C0.288,0.005 0.255,0.012 0.217,0.012C0.199,0.012 0.181,0.01 0.162,0.005C0.142,-0 0.125,-0.009 0.11,-0.02C0.094,-0.031 0.081,-0.046 0.071,-0.064C0.06,-0.082 0.055,-0.104 0.055,-0.13C0.055,-0.166 0.064,-0.195 0.083,-0.216C0.101,-0.237 0.125,-0.252 0.156,-0.263C0.187,-0.273 0.222,-0.28 0.262,-0.283C0.301,-0.286 0.342,-0.287 0.385,-0.287L0.385,-0.302ZM0.365,-0.234C0.337,-0.234 0.309,-0.233 0.281,-0.231C0.252,-0.228 0.227,-0.224 0.204,-0.217C0.181,-0.21 0.162,-0.199 0.147,-0.186C0.132,-0.173 0.125,-0.155 0.125,-0.133C0.125,-0.116 0.128,-0.102 0.135,-0.091C0.141,-0.08 0.149,-0.07 0.16,-0.064C0.171,-0.056 0.183,-0.051 0.196,-0.049C0.209,-0.046 0.222,-0.044 0.235,-0.044C0.259,-0.044 0.28,-0.048 0.299,-0.057C0.318,-0.065 0.333,-0.076 0.346,-0.091C0.359,-0.105 0.368,-0.121 0.375,-0.14C0.382,-0.159 0.385,-0.178 0.385,-0.199L0.385,-0.234L0.365,-0.234Z" style="fill:rgb(27,41,56);fill-rule:nonzero;"/>
                </g>
                <g transform="matrix(50,0,0,50,1860.34,2551.33)">
                    <path d="M0.073,-0.354C0.073,-0.379 0.078,-0.402 0.087,-0.423C0.096,-0.444 0.109,-0.463 0.125,-0.479C0.141,-0.495 0.16,-0.508 0.181,-0.517C0.202,-0.526 0.225,-0.531 0.25,-0.531C0.275,-0.531 0.298,-0.526 0.319,-0.517C0.34,-0.508 0.359,-0.495 0.375,-0.479C0.391,-0.463 0.404,-0.444 0.413,-0.423C0.422,-0.402 0.427,-0.379 0.427,-0.354C0.427,-0.329 0.422,-0.306 0.413,-0.285C0.404,-0.264 0.391,-0.245 0.375,-0.229C0.359,-0.213 0.34,-0.2 0.319,-0.191C0.298,-0.182 0.275,-0.177 0.25,-0.177C0.225,-0.177 0.202,-0.182 0.181,-0.191C0.16,-0.2 0.141,-0.213 0.125,-0.229C0.109,-0.245 0.096,-0.264 0.087,-0.285C0.078,-0.306 0.073,-0.329 0.073,-0.354Z" style="fill:rgb(242,102,40);fill-rule:nonzero;"/>
                </g>
                <g transform="matrix(50,0,0,50,1901.94,2551.33)">
                    <path d="M0.089,-0L0.01,-0L0.316,-0.708L0.386,-0.708L0.69,-0L0.61,-0L0.532,-0.186L0.166,-0.186L0.089,-0ZM0.193,-0.252L0.505,-0.252L0.349,-0.628L0.193,-0.252Z" style="fill:rgb(27,41,56);fill-rule:nonzero;"/>
                </g>
                <g transform="matrix(50,0,0,50,1936.94,2551.33)">
                    <path d="M0.151,-0.468C0.152,-0.455 0.153,-0.441 0.154,-0.426C0.155,-0.411 0.155,-0.398 0.155,-0.388L0.157,-0.388C0.17,-0.415 0.192,-0.438 0.222,-0.455C0.252,-0.471 0.284,-0.48 0.317,-0.48C0.376,-0.48 0.421,-0.462 0.451,-0.427C0.48,-0.392 0.495,-0.345 0.495,-0.287L0.495,-0L0.427,-0L0.427,-0.259C0.427,-0.284 0.425,-0.306 0.421,-0.326C0.417,-0.346 0.41,-0.363 0.401,-0.378C0.391,-0.392 0.378,-0.403 0.362,-0.411C0.345,-0.419 0.325,-0.423 0.3,-0.423C0.282,-0.423 0.265,-0.419 0.248,-0.412C0.231,-0.405 0.215,-0.394 0.202,-0.379C0.189,-0.364 0.178,-0.345 0.17,-0.322C0.162,-0.299 0.158,-0.271 0.158,-0.24L0.158,-0L0.09,-0L0.09,-0.365C0.09,-0.378 0.09,-0.394 0.089,-0.414C0.088,-0.434 0.087,-0.452 0.086,-0.468L0.151,-0.468Z" style="fill:rgb(27,41,56);fill-rule:nonzero;"/>
                </g>
                <g transform="matrix(50,0,0,50,1965.99,2551.33)">
                    <path d="M0.385,-0.302C0.385,-0.343 0.374,-0.373 0.353,-0.393C0.332,-0.413 0.301,-0.423 0.26,-0.423C0.232,-0.423 0.206,-0.418 0.182,-0.408C0.158,-0.398 0.138,-0.385 0.121,-0.368L0.083,-0.413C0.102,-0.432 0.128,-0.448 0.16,-0.461C0.191,-0.474 0.227,-0.48 0.267,-0.48C0.292,-0.48 0.316,-0.476 0.338,-0.47C0.36,-0.463 0.379,-0.452 0.396,-0.438C0.413,-0.424 0.426,-0.406 0.435,-0.385C0.444,-0.364 0.449,-0.339 0.449,-0.31L0.449,-0.105C0.449,-0.087 0.45,-0.068 0.451,-0.049C0.452,-0.03 0.454,-0.013 0.457,-0L0.396,-0C0.394,-0.011 0.392,-0.024 0.391,-0.037C0.39,-0.05 0.389,-0.063 0.389,-0.076L0.387,-0.076C0.366,-0.045 0.341,-0.022 0.315,-0.009C0.288,0.005 0.255,0.012 0.217,0.012C0.199,0.012 0.181,0.01 0.162,0.005C0.142,-0 0.125,-0.009 0.11,-0.02C0.094,-0.031 0.081,-0.046 0.071,-0.064C0.06,-0.082 0.055,-0.104 0.055,-0.13C0.055,-0.166 0.064,-0.195 0.083,-0.216C0.101,-0.237 0.125,-0.252 0.156,-0.263C0.187,-0.273 0.222,-0.28 0.262,-0.283C0.301,-0.286 0.342,-0.287 0.385,-0.287L0.385,-0.302ZM0.365,-0.234C0.337,-0.234 0.309,-0.233 0.281,-0.231C0.252,-0.228 0.227,-0.224 0.204,-0.217C0.181,-0.21 0.162,-0.199 0.147,-0.186C0.132,-0.173 0.125,-0.155 0.125,-0.133C0.125,-0.116 0.128,-0.102 0.135,-0.091C0.141,-0.08 0.149,-0.07 0.16,-0.064C0.171,-0.056 0.183,-0.051 0.196,-0.049C0.209,-0.046 0.222,-0.044 0.235,-0.044C0.259,-0.044 0.28,-0.048 0.299,-0.057C0.318,-0.065 0.333,-0.076 0.346,-0.091C0.359,-0.105 0.368,-0.121 0.375,-0.14C0.382,-0.159 0.385,-0.178 0.385,-0.199L0.385,-0.234L0.365,-0.234Z" style="fill:rgb(27,41,56);fill-rule:nonzero;"/>
                </g>
                <g transform="matrix(50,0,0,50,1992.69,2551.33)">
                    <rect x="0.092" y="-0.756" width="0.068" height="0.756" style="fill:rgb(27,41,56);fill-rule:nonzero;"/>
                </g>
                <g transform="matrix(50,0,0,50,2005.29,2551.33)">
                    <path d="M0.251,-0.073L0.253,-0.073L0.398,-0.468L0.472,-0.468L0.239,0.121C0.225,0.157 0.207,0.186 0.186,0.208C0.164,0.229 0.133,0.24 0.092,0.24C0.071,0.24 0.051,0.238 0.031,0.234L0.038,0.172C0.054,0.177 0.071,0.18 0.088,0.18C0.111,0.18 0.13,0.173 0.143,0.159C0.156,0.144 0.168,0.124 0.178,0.097L0.216,-0.001L0.016,-0.468L0.092,-0.468L0.251,-0.073Z" style="fill:rgb(27,41,56);fill-rule:nonzero;"/>
                </g>
                <g transform="matrix(50,0,0,50,2029.69,2551.33)">
                    <path d="M0.301,-0.411L0.169,-0.411L0.169,-0.138C0.169,-0.121 0.171,-0.106 0.174,-0.095C0.177,-0.084 0.182,-0.075 0.189,-0.069C0.195,-0.062 0.202,-0.058 0.211,-0.056C0.22,-0.053 0.229,-0.052 0.239,-0.052C0.248,-0.052 0.258,-0.053 0.269,-0.056C0.279,-0.059 0.289,-0.062 0.298,-0.067L0.301,-0.008C0.289,-0.003 0.277,0 0.264,0.003C0.251,0.005 0.236,0.006 0.221,0.006C0.208,0.006 0.195,0.004 0.181,0.001C0.167,-0.002 0.154,-0.009 0.142,-0.018C0.13,-0.027 0.12,-0.04 0.113,-0.056C0.105,-0.072 0.101,-0.093 0.101,-0.119L0.101,-0.411L0.004,-0.411L0.004,-0.468L0.101,-0.468L0.101,-0.6L0.169,-0.6L0.169,-0.468L0.301,-0.468L0.301,-0.411Z" style="fill:rgb(27,41,56);fill-rule:nonzero;"/>
                </g>
                <g transform="matrix(50,0,0,50,2045.54,2551.33)">
                    <path d="M0.159,-0L0.091,-0L0.091,-0.468L0.159,-0.468L0.159,-0ZM0.173,-0.648C0.173,-0.634 0.168,-0.623 0.158,-0.614C0.148,-0.604 0.137,-0.6 0.125,-0.6C0.113,-0.6 0.102,-0.604 0.092,-0.614C0.082,-0.623 0.077,-0.634 0.077,-0.648C0.077,-0.662 0.082,-0.674 0.092,-0.683C0.102,-0.692 0.113,-0.696 0.125,-0.696C0.137,-0.696 0.148,-0.692 0.158,-0.683C0.168,-0.674 0.173,-0.662 0.173,-0.648Z" style="fill:rgb(27,41,56);fill-rule:nonzero;"/>
                </g>
                <g transform="matrix(50,0,0,50,2058.04,2551.33)">
                    <path d="M0.427,-0.361C0.416,-0.379 0.399,-0.394 0.378,-0.406C0.356,-0.417 0.332,-0.423 0.307,-0.423C0.28,-0.423 0.255,-0.418 0.233,-0.409C0.211,-0.399 0.192,-0.386 0.177,-0.369C0.161,-0.352 0.149,-0.332 0.141,-0.309C0.132,-0.286 0.128,-0.261 0.128,-0.234C0.128,-0.207 0.132,-0.183 0.141,-0.16C0.149,-0.137 0.161,-0.118 0.176,-0.101C0.191,-0.084 0.21,-0.07 0.232,-0.061C0.254,-0.051 0.279,-0.046 0.306,-0.046C0.336,-0.046 0.361,-0.052 0.382,-0.063C0.403,-0.074 0.42,-0.089 0.433,-0.107L0.484,-0.069C0.464,-0.044 0.44,-0.025 0.411,-0.01C0.382,0.005 0.347,0.012 0.306,0.012C0.268,0.012 0.234,0.006 0.203,-0.007C0.172,-0.019 0.146,-0.036 0.125,-0.058C0.103,-0.08 0.086,-0.106 0.074,-0.136C0.062,-0.166 0.056,-0.199 0.056,-0.234C0.056,-0.269 0.062,-0.302 0.074,-0.332C0.086,-0.362 0.103,-0.388 0.125,-0.41C0.146,-0.432 0.172,-0.449 0.203,-0.462C0.234,-0.474 0.268,-0.48 0.306,-0.48C0.337,-0.48 0.369,-0.473 0.402,-0.46C0.434,-0.446 0.46,-0.426 0.48,-0.399L0.427,-0.361Z" style="fill:rgb(27,41,56);fill-rule:nonzero;"/>
                </g>
                <g transform="matrix(50,0,0,50,2083.04,2551.33)">
                    <path d="M0.339,-0.357C0.329,-0.376 0.314,-0.392 0.294,-0.405C0.273,-0.417 0.25,-0.423 0.224,-0.423C0.212,-0.423 0.2,-0.422 0.188,-0.419C0.176,-0.416 0.165,-0.412 0.156,-0.406C0.147,-0.4 0.139,-0.392 0.134,-0.383C0.128,-0.374 0.125,-0.363 0.125,-0.35C0.125,-0.328 0.134,-0.311 0.152,-0.3C0.17,-0.288 0.198,-0.278 0.237,-0.27C0.292,-0.259 0.333,-0.242 0.36,-0.221C0.386,-0.199 0.399,-0.17 0.399,-0.133C0.399,-0.106 0.394,-0.084 0.384,-0.066C0.373,-0.047 0.36,-0.032 0.343,-0.021C0.326,-0.009 0.308,-0 0.287,0.005C0.266,0.01 0.244,0.012 0.223,0.012C0.188,0.012 0.153,0.005 0.12,-0.01C0.087,-0.025 0.059,-0.048 0.038,-0.079L0.092,-0.119C0.104,-0.098 0.122,-0.081 0.145,-0.067C0.168,-0.053 0.194,-0.046 0.222,-0.046C0.237,-0.046 0.251,-0.047 0.264,-0.05C0.277,-0.053 0.289,-0.057 0.299,-0.064C0.309,-0.071 0.317,-0.079 0.323,-0.09C0.329,-0.1 0.332,-0.113 0.332,-0.128C0.332,-0.153 0.32,-0.171 0.297,-0.184C0.273,-0.196 0.239,-0.207 0.194,-0.218C0.18,-0.221 0.165,-0.226 0.15,-0.231C0.134,-0.236 0.119,-0.243 0.106,-0.253C0.093,-0.262 0.082,-0.274 0.073,-0.289C0.064,-0.304 0.06,-0.322 0.06,-0.344C0.06,-0.368 0.065,-0.389 0.074,-0.406C0.083,-0.423 0.096,-0.436 0.112,-0.448C0.127,-0.459 0.145,-0.467 0.165,-0.472C0.185,-0.477 0.206,-0.48 0.227,-0.48C0.26,-0.48 0.291,-0.473 0.322,-0.458C0.353,-0.443 0.376,-0.423 0.391,-0.396L0.339,-0.357Z" style="fill:rgb(27,41,56);fill-rule:nonzero;"/>
                </g>
                <g transform="matrix(50,0,0,50,2142.74,2551.33)">
                    <path d="M0.073,-0.354C0.073,-0.379 0.078,-0.402 0.087,-0.423C0.096,-0.444 0.109,-0.463 0.125,-0.479C0.141,-0.495 0.16,-0.508 0.181,-0.517C0.202,-0.526 0.225,-0.531 0.25,-0.531C0.275,-0.531 0.298,-0.526 0.319,-0.517C0.34,-0.508 0.359,-0.495 0.375,-0.479C0.391,-0.463 0.404,-0.444 0.413,-0.423C0.422,-0.402 0.427,-0.379 0.427,-0.354C0.427,-0.329 0.422,-0.306 0.413,-0.285C0.404,-0.264 0.391,-0.245 0.375,-0.229C0.359,-0.213 0.34,-0.2 0.319,-0.191C0.298,-0.182 0.275,-0.177 0.25,-0.177C0.225,-0.177 0.202,-0.182 0.181,-0.191C0.16,-0.2 0.141,-0.213 0.125,-0.229C0.109,-0.245 0.096,-0.264 0.087,-0.285C0.078,-0.306 0.073,-0.329 0.073,-0.354Z" style="fill:rgb(242,102,40);fill-rule:nonzero;"/>
                </g>
                <g transform="matrix(50,0,0,50,2185.24,2551.33)">
                    <path d="M0.69,-0.114C0.678,-0.096 0.664,-0.079 0.647,-0.063C0.63,-0.047 0.61,-0.033 0.588,-0.021C0.565,-0.009 0.541,0 0.514,0.008C0.487,0.015 0.457,0.018 0.425,0.018C0.372,0.018 0.322,0.009 0.277,-0.01C0.232,-0.029 0.193,-0.055 0.16,-0.088C0.127,-0.121 0.102,-0.16 0.084,-0.205C0.065,-0.25 0.056,-0.3 0.056,-0.354C0.056,-0.408 0.065,-0.458 0.084,-0.503C0.103,-0.548 0.129,-0.588 0.162,-0.621C0.195,-0.654 0.234,-0.679 0.279,-0.698C0.324,-0.717 0.372,-0.726 0.425,-0.726C0.451,-0.726 0.476,-0.723 0.502,-0.718C0.527,-0.713 0.55,-0.705 0.572,-0.696C0.594,-0.686 0.614,-0.674 0.632,-0.661C0.65,-0.647 0.665,-0.631 0.677,-0.614L0.617,-0.57C0.61,-0.581 0.6,-0.593 0.588,-0.604C0.575,-0.615 0.561,-0.625 0.544,-0.634C0.527,-0.643 0.509,-0.65 0.49,-0.655C0.47,-0.66 0.449,-0.663 0.426,-0.663C0.38,-0.663 0.339,-0.655 0.303,-0.638C0.266,-0.621 0.235,-0.599 0.21,-0.571C0.185,-0.542 0.165,-0.509 0.152,-0.472C0.139,-0.435 0.132,-0.395 0.132,-0.354C0.132,-0.313 0.139,-0.273 0.153,-0.236C0.166,-0.199 0.186,-0.166 0.211,-0.138C0.236,-0.109 0.267,-0.087 0.304,-0.07C0.34,-0.053 0.381,-0.045 0.426,-0.045C0.467,-0.045 0.505,-0.053 0.542,-0.07C0.579,-0.087 0.609,-0.113 0.634,-0.15L0.69,-0.114Z" style="fill:rgb(27,41,56);fill-rule:nonzero;"/>
                </g>
                <g transform="matrix(50,0,0,50,2220.64,2551.33)">
                    <path d="M0.555,-0.234C0.555,-0.199 0.549,-0.166 0.537,-0.136C0.524,-0.106 0.507,-0.08 0.485,-0.058C0.463,-0.036 0.437,-0.019 0.406,-0.007C0.375,0.006 0.342,0.012 0.305,0.012C0.269,0.012 0.236,0.006 0.205,-0.007C0.174,-0.019 0.148,-0.036 0.126,-0.058C0.104,-0.08 0.087,-0.106 0.075,-0.136C0.062,-0.166 0.056,-0.199 0.056,-0.234C0.056,-0.269 0.062,-0.302 0.075,-0.332C0.087,-0.362 0.104,-0.388 0.126,-0.41C0.148,-0.432 0.174,-0.449 0.205,-0.462C0.236,-0.474 0.269,-0.48 0.305,-0.48C0.342,-0.48 0.375,-0.474 0.406,-0.462C0.437,-0.449 0.463,-0.432 0.485,-0.41C0.507,-0.388 0.524,-0.362 0.537,-0.332C0.549,-0.302 0.555,-0.269 0.555,-0.234ZM0.483,-0.234C0.483,-0.26 0.479,-0.285 0.471,-0.308C0.462,-0.331 0.45,-0.351 0.435,-0.368C0.42,-0.385 0.401,-0.398 0.379,-0.408C0.357,-0.418 0.332,-0.423 0.305,-0.423C0.278,-0.423 0.253,-0.418 0.232,-0.408C0.21,-0.398 0.191,-0.385 0.176,-0.368C0.161,-0.351 0.149,-0.331 0.141,-0.308C0.132,-0.285 0.128,-0.26 0.128,-0.234C0.128,-0.208 0.132,-0.184 0.141,-0.161C0.149,-0.137 0.161,-0.118 0.176,-0.101C0.191,-0.084 0.21,-0.07 0.232,-0.061C0.253,-0.051 0.278,-0.046 0.305,-0.046C0.332,-0.046 0.357,-0.051 0.379,-0.061C0.401,-0.07 0.42,-0.084 0.435,-0.101C0.45,-0.118 0.462,-0.137 0.471,-0.161C0.479,-0.184 0.483,-0.208 0.483,-0.234Z" style="fill:rgb(27,41,56);fill-rule:nonzero;"/>
                </g>
                <g transform="matrix(50,0,0,50,2251.19,2551.33)">
                    <path d="M0.151,-0.468C0.152,-0.455 0.153,-0.441 0.154,-0.426C0.155,-0.411 0.155,-0.398 0.155,-0.388L0.157,-0.388C0.17,-0.415 0.192,-0.438 0.222,-0.455C0.252,-0.471 0.284,-0.48 0.317,-0.48C0.376,-0.48 0.421,-0.462 0.451,-0.427C0.48,-0.392 0.495,-0.345 0.495,-0.287L0.495,-0L0.427,-0L0.427,-0.259C0.427,-0.284 0.425,-0.306 0.421,-0.326C0.417,-0.346 0.41,-0.363 0.401,-0.378C0.391,-0.392 0.378,-0.403 0.362,-0.411C0.345,-0.419 0.325,-0.423 0.3,-0.423C0.282,-0.423 0.265,-0.419 0.248,-0.412C0.231,-0.405 0.215,-0.394 0.202,-0.379C0.189,-0.364 0.178,-0.345 0.17,-0.322C0.162,-0.299 0.158,-0.271 0.158,-0.24L0.158,-0L0.09,-0L0.09,-0.365C0.09,-0.378 0.09,-0.394 0.089,-0.414C0.088,-0.434 0.087,-0.452 0.086,-0.468L0.151,-0.468Z" style="fill:rgb(27,41,56);fill-rule:nonzero;"/>
                </g>
                <g transform="matrix(50,0,0,50,2280.24,2551.33)">
                    <path d="M0.151,-0.468C0.152,-0.455 0.153,-0.441 0.154,-0.426C0.155,-0.411 0.155,-0.398 0.155,-0.388L0.157,-0.388C0.17,-0.415 0.192,-0.438 0.222,-0.455C0.252,-0.471 0.284,-0.48 0.317,-0.48C0.376,-0.48 0.421,-0.462 0.451,-0.427C0.48,-0.392 0.495,-0.345 0.495,-0.287L0.495,-0L0.427,-0L0.427,-0.259C0.427,-0.284 0.425,-0.306 0.421,-0.326C0.417,-0.346 0.41,-0.363 0.401,-0.378C0.391,-0.392 0.378,-0.403 0.362,-0.411C0.345,-0.419 0.325,-0.423 0.3,-0.423C0.282,-0.423 0.265,-0.419 0.248,-0.412C0.231,-0.405 0.215,-0.394 0.202,-0.379C0.189,-0.364 0.178,-0.345 0.17,-0.322C0.162,-0.299 0.158,-0.271 0.158,-0.24L0.158,-0L0.09,-0L0.09,-0.365C0.09,-0.378 0.09,-0.394 0.089,-0.414C0.088,-0.434 0.087,-0.452 0.086,-0.468L0.151,-0.468Z" style="fill:rgb(27,41,56);fill-rule:nonzero;"/>
                </g>
                <g transform="matrix(50,0,0,50,2309.29,2551.33)">
                    <path d="M0.447,-0.27C0.445,-0.314 0.431,-0.351 0.405,-0.38C0.378,-0.409 0.341,-0.423 0.292,-0.423C0.269,-0.423 0.248,-0.419 0.229,-0.411C0.21,-0.402 0.193,-0.391 0.178,-0.377C0.163,-0.362 0.152,-0.346 0.143,-0.328C0.134,-0.309 0.129,-0.29 0.128,-0.27L0.447,-0.27ZM0.516,-0.248L0.516,-0.233C0.516,-0.228 0.516,-0.222 0.515,-0.216L0.127,-0.216C0.128,-0.193 0.132,-0.171 0.141,-0.15C0.15,-0.129 0.162,-0.111 0.177,-0.096C0.192,-0.081 0.21,-0.068 0.231,-0.06C0.252,-0.05 0.274,-0.046 0.298,-0.046C0.333,-0.046 0.364,-0.054 0.39,-0.071C0.415,-0.087 0.435,-0.106 0.448,-0.127L0.499,-0.087C0.471,-0.052 0.44,-0.026 0.407,-0.011C0.373,0.004 0.337,0.012 0.298,0.012C0.263,0.012 0.231,0.006 0.202,-0.007C0.172,-0.019 0.146,-0.036 0.125,-0.058C0.104,-0.08 0.087,-0.106 0.075,-0.136C0.062,-0.166 0.056,-0.199 0.056,-0.234C0.056,-0.269 0.062,-0.302 0.074,-0.332C0.086,-0.362 0.103,-0.388 0.124,-0.41C0.145,-0.432 0.17,-0.449 0.199,-0.462C0.228,-0.474 0.259,-0.48 0.292,-0.48C0.329,-0.48 0.361,-0.474 0.389,-0.462C0.417,-0.449 0.44,-0.433 0.459,-0.412C0.478,-0.391 0.492,-0.366 0.502,-0.338C0.511,-0.31 0.516,-0.28 0.516,-0.248Z" style="fill:rgb(27,41,56);fill-rule:nonzero;"/>
                </g>
                <g transform="matrix(50,0,0,50,2337.89,2551.33)">
                    <path d="M0.427,-0.361C0.416,-0.379 0.399,-0.394 0.378,-0.406C0.356,-0.417 0.332,-0.423 0.307,-0.423C0.28,-0.423 0.255,-0.418 0.233,-0.409C0.211,-0.399 0.192,-0.386 0.177,-0.369C0.161,-0.352 0.149,-0.332 0.141,-0.309C0.132,-0.286 0.128,-0.261 0.128,-0.234C0.128,-0.207 0.132,-0.183 0.141,-0.16C0.149,-0.137 0.161,-0.118 0.176,-0.101C0.191,-0.084 0.21,-0.07 0.232,-0.061C0.254,-0.051 0.279,-0.046 0.306,-0.046C0.336,-0.046 0.361,-0.052 0.382,-0.063C0.403,-0.074 0.42,-0.089 0.433,-0.107L0.484,-0.069C0.464,-0.044 0.44,-0.025 0.411,-0.01C0.382,0.005 0.347,0.012 0.306,0.012C0.268,0.012 0.234,0.006 0.203,-0.007C0.172,-0.019 0.146,-0.036 0.125,-0.058C0.103,-0.08 0.086,-0.106 0.074,-0.136C0.062,-0.166 0.056,-0.199 0.056,-0.234C0.056,-0.269 0.062,-0.302 0.074,-0.332C0.086,-0.362 0.103,-0.388 0.125,-0.41C0.146,-0.432 0.172,-0.449 0.203,-0.462C0.234,-0.474 0.268,-0.48 0.306,-0.48C0.337,-0.48 0.369,-0.473 0.402,-0.46C0.434,-0.446 0.46,-0.426 0.48,-0.399L0.427,-0.361Z" style="fill:rgb(27,41,56);fill-rule:nonzero;"/>
                </g>
                <g transform="matrix(50,0,0,50,2362.89,2551.33)">
                    <path d="M0.301,-0.411L0.169,-0.411L0.169,-0.138C0.169,-0.121 0.171,-0.106 0.174,-0.095C0.177,-0.084 0.182,-0.075 0.189,-0.069C0.195,-0.062 0.202,-0.058 0.211,-0.056C0.22,-0.053 0.229,-0.052 0.239,-0.052C0.248,-0.052 0.258,-0.053 0.269,-0.056C0.279,-0.059 0.289,-0.062 0.298,-0.067L0.301,-0.008C0.289,-0.003 0.277,0 0.264,0.003C0.251,0.005 0.236,0.006 0.221,0.006C0.208,0.006 0.195,0.004 0.181,0.001C0.167,-0.002 0.154,-0.009 0.142,-0.018C0.13,-0.027 0.12,-0.04 0.113,-0.056C0.105,-0.072 0.101,-0.093 0.101,-0.119L0.101,-0.411L0.004,-0.411L0.004,-0.468L0.101,-0.468L0.101,-0.6L0.169,-0.6L0.169,-0.468L0.301,-0.468L0.301,-0.411Z" style="fill:rgb(27,41,56);fill-rule:nonzero;"/>
                </g>
                <g transform="matrix(50,0,0,50,2378.74,2551.33)">
                    <path d="M0.159,-0L0.091,-0L0.091,-0.468L0.159,-0.468L0.159,-0ZM0.173,-0.648C0.173,-0.634 0.168,-0.623 0.158,-0.614C0.148,-0.604 0.137,-0.6 0.125,-0.6C0.113,-0.6 0.102,-0.604 0.092,-0.614C0.082,-0.623 0.077,-0.634 0.077,-0.648C0.077,-0.662 0.082,-0.674 0.092,-0.683C0.102,-0.692 0.113,-0.696 0.125,-0.696C0.137,-0.696 0.148,-0.692 0.158,-0.683C0.168,-0.674 0.173,-0.662 0.173,-0.648Z" style="fill:rgb(27,41,56);fill-rule:nonzero;"/>
                </g>
                <g transform="matrix(50,0,0,50,2391.24,2551.33)">
                    <path d="M0.555,-0.234C0.555,-0.199 0.549,-0.166 0.537,-0.136C0.524,-0.106 0.507,-0.08 0.485,-0.058C0.463,-0.036 0.437,-0.019 0.406,-0.007C0.375,0.006 0.342,0.012 0.305,0.012C0.269,0.012 0.236,0.006 0.205,-0.007C0.174,-0.019 0.148,-0.036 0.126,-0.058C0.104,-0.08 0.087,-0.106 0.075,-0.136C0.062,-0.166 0.056,-0.199 0.056,-0.234C0.056,-0.269 0.062,-0.302 0.075,-0.332C0.087,-0.362 0.104,-0.388 0.126,-0.41C0.148,-0.432 0.174,-0.449 0.205,-0.462C0.236,-0.474 0.269,-0.48 0.305,-0.48C0.342,-0.48 0.375,-0.474 0.406,-0.462C0.437,-0.449 0.463,-0.432 0.485,-0.41C0.507,-0.388 0.524,-0.362 0.537,-0.332C0.549,-0.302 0.555,-0.269 0.555,-0.234ZM0.483,-0.234C0.483,-0.26 0.479,-0.285 0.471,-0.308C0.462,-0.331 0.45,-0.351 0.435,-0.368C0.42,-0.385 0.401,-0.398 0.379,-0.408C0.357,-0.418 0.332,-0.423 0.305,-0.423C0.278,-0.423 0.253,-0.418 0.232,-0.408C0.21,-0.398 0.191,-0.385 0.176,-0.368C0.161,-0.351 0.149,-0.331 0.141,-0.308C0.132,-0.285 0.128,-0.26 0.128,-0.234C0.128,-0.208 0.132,-0.184 0.141,-0.161C0.149,-0.137 0.161,-0.118 0.176,-0.101C0.191,-0.084 0.21,-0.07 0.232,-0.061C0.253,-0.051 0.278,-0.046 0.305,-0.046C0.332,-0.046 0.357,-0.051 0.379,-0.061C0.401,-0.07 0.42,-0.084 0.435,-0.101C0.45,-0.118 0.462,-0.137 0.471,-0.161C0.479,-0.184 0.483,-0.208 0.483,-0.234Z" style="fill:rgb(27,41,56);fill-rule:nonzero;"/>
                </g>
                <g transform="matrix(50,0,0,50,2421.79,2551.33)">
                    <path d="M0.151,-0.468C0.152,-0.455 0.153,-0.441 0.154,-0.426C0.155,-0.411 0.155,-0.398 0.155,-0.388L0.157,-0.388C0.17,-0.415 0.192,-0.438 0.222,-0.455C0.252,-0.471 0.284,-0.48 0.317,-0.48C0.376,-0.48 0.421,-0.462 0.451,-0.427C0.48,-0.392 0.495,-0.345 0.495,-0.287L0.495,-0L0.427,-0L0.427,-0.259C0.427,-0.284 0.425,-0.306 0.421,-0.326C0.417,-0.346 0.41,-0.363 0.401,-0.378C0.391,-0.392 0.378,-0.403 0.362,-0.411C0.345,-0.419 0.325,-0.423 0.3,-0.423C0.282,-0.423 0.265,-0.419 0.248,-0.412C0.231,-0.405 0.215,-0.394 0.202,-0.379C0.189,-0.364 0.178,-0.345 0.17,-0.322C0.162,-0.299 0.158,-0.271 0.158,-0.24L0.158,-0L0.09,-0L0.09,-0.365C0.09,-0.378 0.09,-0.394 0.089,-0.414C0.088,-0.434 0.087,-0.452 0.086,-0.468L0.151,-0.468Z" style="fill:rgb(27,41,56);fill-rule:nonzero;"/>
                </g>
                <g transform="matrix(50,0,0,50,2450.84,2551.33)">
                    <path d="M0.339,-0.357C0.329,-0.376 0.314,-0.392 0.294,-0.405C0.273,-0.417 0.25,-0.423 0.224,-0.423C0.212,-0.423 0.2,-0.422 0.188,-0.419C0.176,-0.416 0.165,-0.412 0.156,-0.406C0.147,-0.4 0.139,-0.392 0.134,-0.383C0.128,-0.374 0.125,-0.363 0.125,-0.35C0.125,-0.328 0.134,-0.311 0.152,-0.3C0.17,-0.288 0.198,-0.278 0.237,-0.27C0.292,-0.259 0.333,-0.242 0.36,-0.221C0.386,-0.199 0.399,-0.17 0.399,-0.133C0.399,-0.106 0.394,-0.084 0.384,-0.066C0.373,-0.047 0.36,-0.032 0.343,-0.021C0.326,-0.009 0.308,-0 0.287,0.005C0.266,0.01 0.244,0.012 0.223,0.012C0.188,0.012 0.153,0.005 0.12,-0.01C0.087,-0.025 0.059,-0.048 0.038,-0.079L0.092,-0.119C0.104,-0.098 0.122,-0.081 0.145,-0.067C0.168,-0.053 0.194,-0.046 0.222,-0.046C0.237,-0.046 0.251,-0.047 0.264,-0.05C0.277,-0.053 0.289,-0.057 0.299,-0.064C0.309,-0.071 0.317,-0.079 0.323,-0.09C0.329,-0.1 0.332,-0.113 0.332,-0.128C0.332,-0.153 0.32,-0.171 0.297,-0.184C0.273,-0.196 0.239,-0.207 0.194,-0.218C0.18,-0.221 0.165,-0.226 0.15,-0.231C0.134,-0.236 0.119,-0.243 0.106,-0.253C0.093,-0.262 0.082,-0.274 0.073,-0.289C0.064,-0.304 0.06,-0.322 0.06,-0.344C0.06,-0.368 0.065,-0.389 0.074,-0.406C0.083,-0.423 0.096,-0.436 0.112,-0.448C0.127,-0.459 0.145,-0.467 0.165,-0.472C0.185,-0.477 0.206,-0.48 0.227,-0.48C0.26,-0.48 0.291,-0.473 0.322,-0.458C0.353,-0.443 0.376,-0.423 0.391,-0.396L0.339,-0.357Z" style="fill:rgb(27,41,56);fill-rule:nonzero;"/>
                </g>
            </g>
        </g>
    </g>
</svg>
