<?xml version="1.0" encoding="UTF-8" standalone="no"?>
<!DOCTYPE svg PUBLIC "-//W3C//DTD SVG 1.1//EN" "http://www.w3.org/Graphics/SVG/1.1/DTD/svg11.dtd">
<svg width="100%" height="100%" viewBox="0 0 520 571" version="1.1" xmlns="http://www.w3.org/2000/svg" xmlns:xlink="http://www.w3.org/1999/xlink" xml:space="preserve" xmlns:serif="http://www.serif.com/" style="fill-rule:evenodd;clip-rule:evenodd;stroke-linejoin:round;stroke-miterlimit:2;">
    <g id="Layer2">
        <g transform="matrix(2.54065,0,0,2.54065,-1003.11,-172.792)">
            <path d="M463.462,154.268C465.079,145.492 469.272,137.104 476.046,130.33C482.641,123.735 490.9,119.408 499.877,117.738C499.154,110.3 495.948,103.06 490.263,97.376C488.901,96.014 487.448,94.79 485.922,93.715C475.179,97.191 465.338,103.189 457.122,111.405C448.865,119.662 442.848,129.562 439.377,140.367C440.453,141.876 441.663,143.305 442.998,144.644C448.709,150.352 455.989,153.564 463.462,154.268ZM575.236,134.877C571.645,126.206 566.343,118.244 559.504,111.405C546.184,98.085 528.584,90.594 509.807,90.217C515.82,98.639 519.072,108.44 519.564,118.356C521.689,118.891 523.767,119.582 525.784,120.416C531.252,122.681 536.271,126.021 540.579,130.33C549.2,138.948 553.945,150.408 553.945,162.597C553.945,174.785 549.2,186.245 540.579,194.863C531.962,203.484 520.5,208.229 508.313,208.229C496.125,208.229 484.664,203.484 476.046,194.863C470.057,188.874 466.082,181.618 464.125,173.95C454.196,173.484 444.376,170.254 435.935,164.25C436.353,182.972 443.838,200.505 457.122,213.788C470.795,227.464 488.976,234.993 508.313,234.993C527.649,234.993 545.831,227.464 559.504,213.788C573.181,200.114 580.709,181.936 580.709,162.597C580.709,152.93 578.828,143.549 575.236,134.877Z" style="fill:url(#_Linear1);"/>
            <path d="M466.631,87.604C470.91,87.604 475.19,88.418 479.212,90.048C481.552,90.996 483.808,92.216 485.922,93.715C493.058,91.402 500.591,90.201 508.313,90.201C508.811,90.201 509.312,90.206 509.807,90.217C508.128,87.867 506.236,85.624 504.127,83.515C483.452,62.843 449.812,62.843 429.137,83.515C419.122,93.53 413.606,106.847 413.606,121.011C413.606,135.174 419.122,148.489 429.137,158.504C431.275,160.64 433.551,162.557 435.935,164.25C435.922,163.702 435.917,163.148 435.917,162.597C435.917,154.937 437.097,147.457 439.377,140.367C435.368,134.751 433.208,128.047 433.208,121.011C433.208,112.083 436.685,103.689 442.998,97.376C449.513,90.862 458.072,87.604 466.631,87.604ZM519.564,118.356C515.93,117.438 512.159,116.964 508.313,116.964C505.452,116.964 502.631,117.227 499.877,117.738C500.816,127.351 497.61,137.297 490.263,144.644C482.943,151.963 473.043,155.172 463.462,154.268C462.263,160.785 462.482,167.513 464.125,173.95C464.961,173.99 465.796,174.009 466.631,174.009C480.208,174.009 493.791,168.841 504.127,158.504C514.463,148.166 519.63,134.588 519.63,121.011C519.63,120.125 519.61,119.239 519.564,118.356Z" style="fill:url(#_Linear2);"/>
        </g>
        <g transform="matrix(2.54065,0,0,2.54065,-1008.83,-172.792)">
            <g>
                <g transform="matrix(22,0,0,22,402.799,271.6)">
                    <rect x="0.079" y="-0.754" width="0.196" height="0.754" style="fill:rgb(89,89,89);fill-rule:nonzero;"/>
                </g>
                <g transform="matrix(22,0,0,22,410.367,271.6)">
                    <path d="M0.264,-0.362L0.264,-0L0.083,-0L0.083,-0.362L0.023,-0.362L0.023,-0.513L0.083,-0.513L0.083,-0.667L0.264,-0.667L0.264,-0.513L0.367,-0.513L0.367,-0.362L0.264,-0.362Z" style="fill:rgb(89,89,89);fill-rule:nonzero;"/>
                </g>
                <g transform="matrix(22,0,0,22,418.573,271.6)">
                    <path d="M0.18,-0.451L0.073,-0.451L0.046,-0.754L0.207,-0.754L0.18,-0.451Z" style="fill:rgb(89,89,89);fill-rule:nonzero;"/>
                </g>
                <g transform="matrix(22,0,0,22,424.139,271.6)">
                    <path d="M0.402,-0.381C0.369,-0.398 0.336,-0.407 0.304,-0.407C0.287,-0.407 0.274,-0.404 0.264,-0.397C0.253,-0.39 0.248,-0.381 0.248,-0.37C0.248,-0.364 0.249,-0.359 0.251,-0.356C0.252,-0.352 0.256,-0.348 0.262,-0.345C0.267,-0.342 0.276,-0.339 0.287,-0.336C0.298,-0.333 0.312,-0.33 0.33,-0.326C0.38,-0.316 0.417,-0.298 0.442,-0.273C0.467,-0.247 0.479,-0.214 0.479,-0.174C0.479,-0.144 0.473,-0.117 0.461,-0.093C0.449,-0.069 0.432,-0.049 0.411,-0.033C0.39,-0.016 0.364,-0.004 0.334,0.006C0.304,0.014 0.271,0.019 0.235,0.019C0.166,0.019 0.097,-0.001 0.03,-0.04L0.096,-0.168C0.147,-0.133 0.195,-0.116 0.24,-0.116C0.257,-0.116 0.27,-0.12 0.281,-0.127C0.292,-0.134 0.297,-0.144 0.297,-0.155C0.297,-0.162 0.296,-0.167 0.295,-0.172C0.293,-0.176 0.289,-0.18 0.284,-0.184C0.279,-0.187 0.271,-0.191 0.261,-0.194C0.25,-0.197 0.237,-0.2 0.22,-0.203C0.164,-0.214 0.125,-0.231 0.103,-0.254C0.08,-0.276 0.069,-0.307 0.069,-0.346C0.069,-0.375 0.074,-0.401 0.085,-0.424C0.096,-0.447 0.111,-0.466 0.131,-0.482C0.151,-0.498 0.175,-0.51 0.204,-0.519C0.232,-0.528 0.263,-0.532 0.298,-0.532C0.355,-0.532 0.41,-0.521 0.463,-0.499L0.402,-0.381Z" style="fill:rgb(89,89,89);fill-rule:nonzero;"/>
                </g>
                <g transform="matrix(22,0,0,22,442.817,271.6)">
                    <path d="M0.079,-0L0.079,-0.754L0.275,-0.754L0.637,-0.293L0.637,-0.754L0.832,-0.754L0.832,-0L0.637,-0L0.275,-0.461L0.275,-0L0.079,-0Z" style="fill:rgb(89,89,89);fill-rule:nonzero;"/>
                </g>
                <g transform="matrix(22,0,0,22,463.123,271.6)">
                    <path d="M0.437,-0.331C0.431,-0.356 0.419,-0.377 0.4,-0.392C0.381,-0.407 0.359,-0.415 0.332,-0.415C0.304,-0.415 0.281,-0.408 0.264,-0.393C0.246,-0.378 0.235,-0.358 0.23,-0.331L0.437,-0.331ZM0.225,-0.226C0.225,-0.148 0.262,-0.109 0.335,-0.109C0.374,-0.109 0.404,-0.125 0.424,-0.157L0.599,-0.157C0.564,-0.04 0.475,0.019 0.334,0.019C0.291,0.019 0.251,0.012 0.215,-0.001C0.179,-0.014 0.148,-0.032 0.123,-0.056C0.097,-0.08 0.077,-0.109 0.063,-0.142C0.049,-0.175 0.042,-0.213 0.042,-0.254C0.042,-0.297 0.049,-0.335 0.062,-0.37C0.075,-0.404 0.094,-0.433 0.119,-0.457C0.144,-0.481 0.173,-0.5 0.209,-0.513C0.244,-0.526 0.283,-0.532 0.327,-0.532C0.37,-0.532 0.409,-0.526 0.444,-0.513C0.479,-0.5 0.508,-0.481 0.532,-0.456C0.556,-0.431 0.574,-0.401 0.587,-0.366C0.6,-0.33 0.606,-0.29 0.606,-0.245L0.606,-0.226L0.225,-0.226Z" style="fill:rgb(89,89,89);fill-rule:nonzero;"/>
                </g>
                <g transform="matrix(22,0,0,22,476.829,271.6)">
                    <path d="M0.204,-0.513L0.326,-0.25L0.45,-0.513L0.652,-0.513L0.385,-0L0.264,-0L0,-0.513L0.204,-0.513Z" style="fill:rgb(89,89,89);fill-rule:nonzero;"/>
                </g>
                <g transform="matrix(22,0,0,22,490.645,271.6)">
                    <path d="M0.437,-0.331C0.431,-0.356 0.419,-0.377 0.4,-0.392C0.381,-0.407 0.359,-0.415 0.332,-0.415C0.304,-0.415 0.281,-0.408 0.264,-0.393C0.246,-0.378 0.235,-0.358 0.23,-0.331L0.437,-0.331ZM0.225,-0.226C0.225,-0.148 0.262,-0.109 0.335,-0.109C0.374,-0.109 0.404,-0.125 0.424,-0.157L0.599,-0.157C0.564,-0.04 0.475,0.019 0.334,0.019C0.291,0.019 0.251,0.012 0.215,-0.001C0.179,-0.014 0.148,-0.032 0.123,-0.056C0.097,-0.08 0.077,-0.109 0.063,-0.142C0.049,-0.175 0.042,-0.213 0.042,-0.254C0.042,-0.297 0.049,-0.335 0.062,-0.37C0.075,-0.404 0.094,-0.433 0.119,-0.457C0.144,-0.481 0.173,-0.5 0.209,-0.513C0.244,-0.526 0.283,-0.532 0.327,-0.532C0.37,-0.532 0.409,-0.526 0.444,-0.513C0.479,-0.5 0.508,-0.481 0.532,-0.456C0.556,-0.431 0.574,-0.401 0.587,-0.366C0.6,-0.33 0.606,-0.29 0.606,-0.245L0.606,-0.226L0.225,-0.226Z" style="fill:rgb(89,89,89);fill-rule:nonzero;"/>
                </g>
                <g transform="matrix(22,0,0,22,504.879,271.6)">
                    <path d="M0.062,-0.513L0.243,-0.513L0.243,-0.429C0.262,-0.46 0.286,-0.483 0.314,-0.5C0.342,-0.516 0.375,-0.524 0.412,-0.524L0.428,-0.524C0.433,-0.524 0.44,-0.523 0.447,-0.522L0.447,-0.349C0.423,-0.361 0.397,-0.367 0.369,-0.367C0.327,-0.367 0.296,-0.355 0.275,-0.33C0.254,-0.305 0.243,-0.268 0.243,-0.22L0.243,-0L0.062,-0L0.062,-0.513Z" style="fill:rgb(89,89,89);fill-rule:nonzero;"/>
                </g>
                <g transform="matrix(22,0,0,22,522.589,271.6)">
                    <path d="M0.635,-0L0.028,-0L0.215,-0.194C0.264,-0.245 0.303,-0.289 0.331,-0.325C0.359,-0.36 0.38,-0.39 0.394,-0.415C0.407,-0.44 0.416,-0.46 0.419,-0.475C0.422,-0.49 0.424,-0.503 0.424,-0.514C0.424,-0.525 0.422,-0.536 0.419,-0.547C0.415,-0.558 0.409,-0.567 0.402,-0.576C0.395,-0.584 0.386,-0.591 0.376,-0.596C0.365,-0.6 0.353,-0.603 0.339,-0.603C0.312,-0.603 0.292,-0.594 0.277,-0.577C0.262,-0.56 0.254,-0.538 0.254,-0.512C0.254,-0.505 0.255,-0.494 0.257,-0.48L0.043,-0.48C0.043,-0.524 0.05,-0.564 0.065,-0.6C0.079,-0.636 0.099,-0.667 0.125,-0.693C0.151,-0.719 0.182,-0.739 0.218,-0.753C0.253,-0.767 0.292,-0.774 0.335,-0.774C0.377,-0.774 0.416,-0.767 0.452,-0.754C0.487,-0.741 0.518,-0.722 0.544,-0.698C0.57,-0.674 0.59,-0.646 0.605,-0.613C0.62,-0.58 0.627,-0.544 0.627,-0.505C0.627,-0.464 0.618,-0.426 0.601,-0.391C0.583,-0.356 0.555,-0.32 0.516,-0.283L0.391,-0.166L0.635,-0.166L0.635,-0Z" style="fill:rgb(89,89,89);fill-rule:nonzero;"/>
                </g>
                <g transform="matrix(22,0,0,22,545.029,271.6)">
                    <path d="M0.275,-0.754L0.275,-0.166L0.51,-0.166L0.51,-0L0.079,-0L0.079,-0.754L0.275,-0.754Z" style="fill:rgb(89,89,89);fill-rule:nonzero;"/>
                </g>
                <g transform="matrix(22,0,0,22,556.733,271.6)">
                    <path d="M0.23,-0.258C0.23,-0.241 0.233,-0.226 0.239,-0.212C0.245,-0.197 0.253,-0.185 0.264,-0.174C0.274,-0.163 0.286,-0.155 0.301,-0.149C0.315,-0.143 0.33,-0.14 0.347,-0.14C0.363,-0.14 0.378,-0.143 0.393,-0.149C0.407,-0.155 0.419,-0.163 0.43,-0.174C0.44,-0.185 0.448,-0.197 0.455,-0.211C0.461,-0.225 0.464,-0.24 0.464,-0.256C0.464,-0.272 0.461,-0.287 0.455,-0.302C0.448,-0.316 0.44,-0.328 0.43,-0.339C0.419,-0.35 0.407,-0.358 0.393,-0.364C0.378,-0.37 0.363,-0.373 0.347,-0.373C0.33,-0.373 0.315,-0.37 0.301,-0.364C0.286,-0.358 0.274,-0.35 0.264,-0.339C0.253,-0.328 0.245,-0.316 0.239,-0.303C0.233,-0.289 0.23,-0.274 0.23,-0.258ZM0.458,-0.513L0.64,-0.513L0.64,-0L0.458,-0L0.458,-0.057C0.419,-0.008 0.367,0.016 0.301,0.016C0.264,0.016 0.229,0.009 0.198,-0.005C0.167,-0.018 0.139,-0.037 0.116,-0.062C0.093,-0.087 0.075,-0.116 0.062,-0.149C0.049,-0.182 0.042,-0.219 0.042,-0.258C0.042,-0.295 0.048,-0.329 0.061,-0.363C0.074,-0.396 0.091,-0.424 0.114,-0.449C0.137,-0.474 0.164,-0.493 0.195,-0.508C0.226,-0.522 0.261,-0.529 0.299,-0.529C0.363,-0.529 0.416,-0.507 0.458,-0.462L0.458,-0.513Z" style="fill:rgb(89,89,89);fill-rule:nonzero;"/>
                </g>
                <g transform="matrix(22,0,0,22,572.155,271.6)">
                    <path d="M0.264,-0.362L0.264,-0L0.083,-0L0.083,-0.362L0.023,-0.362L0.023,-0.513L0.083,-0.513L0.083,-0.667L0.264,-0.667L0.264,-0.513L0.367,-0.513L0.367,-0.362L0.264,-0.362Z" style="fill:rgb(89,89,89);fill-rule:nonzero;"/>
                </g>
                <g transform="matrix(22,0,0,22,580.581,271.6)">
                    <path d="M0.437,-0.331C0.431,-0.356 0.419,-0.377 0.4,-0.392C0.381,-0.407 0.359,-0.415 0.332,-0.415C0.304,-0.415 0.281,-0.408 0.264,-0.393C0.246,-0.378 0.235,-0.358 0.23,-0.331L0.437,-0.331ZM0.225,-0.226C0.225,-0.148 0.262,-0.109 0.335,-0.109C0.374,-0.109 0.404,-0.125 0.424,-0.157L0.599,-0.157C0.564,-0.04 0.475,0.019 0.334,0.019C0.291,0.019 0.251,0.012 0.215,-0.001C0.179,-0.014 0.148,-0.032 0.123,-0.056C0.097,-0.08 0.077,-0.109 0.063,-0.142C0.049,-0.175 0.042,-0.213 0.042,-0.254C0.042,-0.297 0.049,-0.335 0.062,-0.37C0.075,-0.404 0.094,-0.433 0.119,-0.457C0.144,-0.481 0.173,-0.5 0.209,-0.513C0.244,-0.526 0.283,-0.532 0.327,-0.532C0.37,-0.532 0.409,-0.526 0.444,-0.513C0.479,-0.5 0.508,-0.481 0.532,-0.456C0.556,-0.431 0.574,-0.401 0.587,-0.366C0.6,-0.33 0.606,-0.29 0.606,-0.245L0.606,-0.226L0.225,-0.226Z" style="fill:rgb(89,89,89);fill-rule:nonzero;"/>
                </g>
            </g>
            <g>
                <g transform="matrix(16,0,0,16,401.505,288.6)">
                    <path d="M0.42,-0.825L0.53,-0.825L0.53,-0L0.42,-0L0.42,-0.05C0.377,-0.007 0.328,0.014 0.273,0.014C0.208,0.014 0.154,-0.01 0.111,-0.058C0.068,-0.106 0.047,-0.167 0.047,-0.239C0.047,-0.31 0.068,-0.369 0.111,-0.417C0.153,-0.465 0.206,-0.489 0.271,-0.489C0.326,-0.489 0.376,-0.466 0.42,-0.42L0.42,-0.825ZM0.159,-0.239C0.159,-0.194 0.171,-0.157 0.196,-0.128C0.221,-0.099 0.252,-0.084 0.291,-0.084C0.331,-0.084 0.364,-0.098 0.389,-0.126C0.414,-0.155 0.427,-0.192 0.427,-0.237C0.427,-0.281 0.414,-0.318 0.389,-0.347C0.364,-0.375 0.332,-0.39 0.292,-0.39C0.254,-0.39 0.222,-0.375 0.197,-0.347C0.172,-0.318 0.159,-0.282 0.159,-0.239Z" style="fill:rgb(0,148,1);fill-rule:nonzero;"/>
                </g>
                <g transform="matrix(16,0,0,16,410.939,288.6)">
                    <path d="M0.179,-0.476L0.179,-0L0.069,-0L0.069,-0.476L0.179,-0.476ZM0.053,-0.673C0.053,-0.693 0.06,-0.709 0.074,-0.723C0.088,-0.737 0.104,-0.744 0.124,-0.744C0.144,-0.744 0.161,-0.737 0.175,-0.723C0.189,-0.709 0.196,-0.693 0.196,-0.673C0.196,-0.653 0.189,-0.636 0.175,-0.622C0.161,-0.608 0.144,-0.601 0.125,-0.601C0.105,-0.601 0.088,-0.608 0.074,-0.622C0.06,-0.636 0.053,-0.653 0.053,-0.673Z" style="fill:rgb(0,148,1);fill-rule:nonzero;"/>
                </g>
                <g transform="matrix(16,0,0,16,414.923,288.6)">
                    <path d="M0.529,-0.011C0.529,0.011 0.529,0.031 0.527,0.048C0.526,0.065 0.524,0.08 0.521,0.093C0.513,0.129 0.498,0.16 0.475,0.186C0.432,0.235 0.373,0.26 0.298,0.26C0.234,0.26 0.182,0.243 0.141,0.208C0.099,0.173 0.074,0.125 0.068,0.063L0.178,0.063C0.182,0.086 0.189,0.104 0.199,0.117C0.222,0.146 0.255,0.161 0.299,0.161C0.379,0.161 0.419,0.112 0.419,0.013L0.419,-0.053C0.376,-0.009 0.326,0.014 0.269,0.014C0.204,0.014 0.151,-0.01 0.109,-0.057C0.068,-0.104 0.047,-0.164 0.047,-0.235C0.047,-0.304 0.066,-0.363 0.105,-0.412C0.147,-0.463 0.202,-0.489 0.27,-0.489C0.33,-0.489 0.38,-0.466 0.419,-0.422L0.419,-0.476L0.529,-0.476L0.529,-0.011ZM0.424,-0.237C0.424,-0.283 0.411,-0.32 0.387,-0.348C0.362,-0.376 0.33,-0.39 0.291,-0.39C0.249,-0.39 0.216,-0.375 0.192,-0.344C0.17,-0.316 0.159,-0.28 0.159,-0.236C0.159,-0.193 0.17,-0.158 0.192,-0.13C0.216,-0.1 0.249,-0.084 0.291,-0.084C0.333,-0.084 0.366,-0.1 0.39,-0.13C0.413,-0.158 0.424,-0.194 0.424,-0.237Z" style="fill:rgb(0,148,1);fill-rule:nonzero;"/>
                </g>
                <g transform="matrix(16,0,0,16,424.501,288.6)">
                    <path d="M0.069,-0.476L0.18,-0.476L0.18,-0.432C0.218,-0.47 0.261,-0.489 0.31,-0.489C0.365,-0.489 0.408,-0.471 0.439,-0.437C0.466,-0.407 0.479,-0.359 0.479,-0.292L0.479,-0L0.369,-0L0.369,-0.266C0.369,-0.313 0.362,-0.345 0.349,-0.363C0.336,-0.381 0.313,-0.39 0.28,-0.39C0.243,-0.39 0.217,-0.378 0.202,-0.354C0.187,-0.33 0.18,-0.289 0.18,-0.229L0.18,-0L0.069,-0L0.069,-0.476Z" style="fill:rgb(0,148,1);fill-rule:nonzero;"/>
                </g>
                <g transform="matrix(16,0,0,16,433.275,288.6)">
                    <path d="M0.179,-0.476L0.179,-0L0.069,-0L0.069,-0.476L0.179,-0.476ZM0.053,-0.673C0.053,-0.693 0.06,-0.709 0.074,-0.723C0.088,-0.737 0.104,-0.744 0.124,-0.744C0.144,-0.744 0.161,-0.737 0.175,-0.723C0.189,-0.709 0.196,-0.693 0.196,-0.673C0.196,-0.653 0.189,-0.636 0.175,-0.622C0.161,-0.608 0.144,-0.601 0.125,-0.601C0.105,-0.601 0.088,-0.608 0.074,-0.622C0.06,-0.636 0.053,-0.653 0.053,-0.673Z" style="fill:rgb(0,148,1);fill-rule:nonzero;"/>
                </g>
                <g transform="matrix(16,0,0,16,437.259,288.6)">
                    <path d="M0.183,-0.373L0.183,-0L0.073,-0L0.073,-0.373L0.026,-0.373L0.026,-0.476L0.073,-0.476L0.073,-0.65L0.183,-0.65L0.183,-0.476L0.268,-0.476L0.268,-0.373L0.183,-0.373Z" style="fill:rgb(0,148,1);fill-rule:nonzero;"/>
                </g>
                <g transform="matrix(16,0,0,16,441.634,288.6)">
                    <path d="M0.219,-0.088L0.005,-0.476L0.133,-0.476L0.278,-0.202L0.414,-0.476L0.538,-0.476L0.159,0.259L0.034,0.259L0.219,-0.088Z" style="fill:rgb(0,148,1);fill-rule:nonzero;"/>
                </g>
                <g transform="matrix(16,0,0,16,455.267,288.6)">
                    <path d="M0.183,-0.373L0.183,-0L0.073,-0L0.073,-0.373L0.026,-0.373L0.026,-0.476L0.073,-0.476L0.073,-0.65L0.183,-0.65L0.183,-0.476L0.268,-0.476L0.268,-0.373L0.183,-0.373Z" style="fill:rgb(0,148,1);fill-rule:nonzero;"/>
                </g>
                <g transform="matrix(16,0,0,16,459.962,288.6)">
                    <path d="M0.069,-0.825L0.179,-0.825L0.179,-0.436C0.218,-0.471 0.261,-0.489 0.309,-0.489C0.362,-0.489 0.405,-0.471 0.438,-0.437C0.465,-0.406 0.479,-0.358 0.479,-0.292L0.479,-0L0.369,-0L0.369,-0.281C0.369,-0.319 0.362,-0.347 0.348,-0.364C0.335,-0.381 0.313,-0.39 0.283,-0.39C0.245,-0.39 0.218,-0.378 0.202,-0.354C0.187,-0.33 0.179,-0.289 0.179,-0.23L0.179,-0L0.069,-0L0.069,-0.825Z" style="fill:rgb(0,148,1);fill-rule:nonzero;"/>
                </g>
                <g transform="matrix(16,0,0,16,468.736,288.6)">
                    <path d="M0.069,-0.476L0.179,-0.476L0.179,-0.433C0.199,-0.454 0.217,-0.469 0.233,-0.477C0.249,-0.485 0.268,-0.489 0.29,-0.489C0.319,-0.489 0.349,-0.479 0.38,-0.46L0.33,-0.36C0.309,-0.375 0.289,-0.382 0.269,-0.382C0.209,-0.382 0.179,-0.337 0.179,-0.247L0.179,-0L0.069,-0L0.069,-0.476Z" style="fill:rgb(0,148,1);fill-rule:nonzero;"/>
                </g>
                <g transform="matrix(16,0,0,16,474.58,288.6)">
                    <path d="M0.047,-0.241C0.047,-0.31 0.071,-0.368 0.121,-0.417C0.17,-0.465 0.23,-0.489 0.3,-0.489C0.371,-0.489 0.431,-0.465 0.481,-0.416C0.53,-0.368 0.554,-0.308 0.554,-0.237C0.554,-0.166 0.53,-0.106 0.48,-0.058C0.431,-0.01 0.37,0.014 0.298,0.014C0.227,0.014 0.167,-0.011 0.119,-0.06C0.071,-0.108 0.047,-0.168 0.047,-0.241ZM0.159,-0.239C0.159,-0.192 0.172,-0.154 0.197,-0.126C0.223,-0.098 0.258,-0.084 0.3,-0.084C0.343,-0.084 0.378,-0.098 0.403,-0.126C0.429,-0.154 0.442,-0.191 0.442,-0.237C0.442,-0.283 0.429,-0.32 0.403,-0.348C0.377,-0.376 0.343,-0.39 0.3,-0.39C0.258,-0.39 0.224,-0.376 0.198,-0.348C0.172,-0.32 0.159,-0.284 0.159,-0.239Z" style="fill:rgb(0,148,1);fill-rule:nonzero;"/>
                </g>
                <g transform="matrix(16,0,0,16,484.197,288.6)">
                    <path d="M0.179,-0.476L0.179,-0.203C0.179,-0.124 0.21,-0.084 0.272,-0.084C0.335,-0.084 0.366,-0.124 0.366,-0.203L0.366,-0.476L0.476,-0.476L0.476,-0.2C0.476,-0.162 0.471,-0.129 0.461,-0.102C0.452,-0.077 0.437,-0.055 0.414,-0.035C0.377,-0.002 0.33,0.014 0.272,0.014C0.215,0.014 0.168,-0.002 0.131,-0.035C0.109,-0.055 0.092,-0.077 0.083,-0.102C0.074,-0.124 0.069,-0.157 0.069,-0.2L0.069,-0.476L0.179,-0.476Z" style="fill:rgb(0,148,1);fill-rule:nonzero;"/>
                </g>
                <g transform="matrix(16,0,0,16,492.916,288.6)">
                    <path d="M0.529,-0.011C0.529,0.011 0.529,0.031 0.527,0.048C0.526,0.065 0.524,0.08 0.521,0.093C0.513,0.129 0.498,0.16 0.475,0.186C0.432,0.235 0.373,0.26 0.298,0.26C0.234,0.26 0.182,0.243 0.141,0.208C0.099,0.173 0.074,0.125 0.068,0.063L0.178,0.063C0.182,0.086 0.189,0.104 0.199,0.117C0.222,0.146 0.255,0.161 0.299,0.161C0.379,0.161 0.419,0.112 0.419,0.013L0.419,-0.053C0.376,-0.009 0.326,0.014 0.269,0.014C0.204,0.014 0.151,-0.01 0.109,-0.057C0.068,-0.104 0.047,-0.164 0.047,-0.235C0.047,-0.304 0.066,-0.363 0.105,-0.412C0.147,-0.463 0.202,-0.489 0.27,-0.489C0.33,-0.489 0.38,-0.466 0.419,-0.422L0.419,-0.476L0.529,-0.476L0.529,-0.011ZM0.424,-0.237C0.424,-0.283 0.411,-0.32 0.387,-0.348C0.362,-0.376 0.33,-0.39 0.291,-0.39C0.249,-0.39 0.216,-0.375 0.192,-0.344C0.17,-0.316 0.159,-0.28 0.159,-0.236C0.159,-0.193 0.17,-0.158 0.192,-0.13C0.216,-0.1 0.249,-0.084 0.291,-0.084C0.333,-0.084 0.366,-0.1 0.39,-0.13C0.413,-0.158 0.424,-0.194 0.424,-0.237Z" style="fill:rgb(0,148,1);fill-rule:nonzero;"/>
                </g>
                <g transform="matrix(16,0,0,16,502.494,288.6)">
                    <path d="M0.069,-0.825L0.179,-0.825L0.179,-0.436C0.218,-0.471 0.261,-0.489 0.309,-0.489C0.362,-0.489 0.405,-0.471 0.438,-0.437C0.465,-0.406 0.479,-0.358 0.479,-0.292L0.479,-0L0.369,-0L0.369,-0.281C0.369,-0.319 0.362,-0.347 0.348,-0.364C0.335,-0.381 0.313,-0.39 0.283,-0.39C0.245,-0.39 0.218,-0.378 0.202,-0.354C0.187,-0.33 0.179,-0.289 0.179,-0.23L0.179,-0L0.069,-0L0.069,-0.825Z" style="fill:rgb(0,148,1);fill-rule:nonzero;"/>
                </g>
                <g transform="matrix(16,0,0,16,516.205,288.6)">
                    <path d="M0.183,-0.373L0.183,-0L0.073,-0L0.073,-0.373L0.026,-0.373L0.026,-0.476L0.073,-0.476L0.073,-0.65L0.183,-0.65L0.183,-0.476L0.268,-0.476L0.268,-0.373L0.183,-0.373Z" style="fill:rgb(0,148,1);fill-rule:nonzero;"/>
                </g>
                <g transform="matrix(16,0,0,16,520.72,288.6)">
                    <path d="M0.502,-0.212L0.162,-0.212C0.165,-0.173 0.177,-0.142 0.2,-0.119C0.222,-0.096 0.251,-0.084 0.286,-0.084C0.313,-0.084 0.336,-0.091 0.354,-0.104C0.372,-0.117 0.392,-0.141 0.414,-0.176L0.507,-0.125C0.493,-0.1 0.477,-0.079 0.461,-0.062C0.445,-0.044 0.428,-0.03 0.41,-0.019C0.392,-0.008 0.372,0.001 0.351,0.006C0.33,0.011 0.307,0.014 0.282,0.014C0.211,0.014 0.154,-0.009 0.111,-0.055C0.068,-0.101 0.047,-0.161 0.047,-0.237C0.047,-0.313 0.068,-0.373 0.109,-0.42C0.151,-0.466 0.207,-0.489 0.276,-0.489C0.346,-0.489 0.402,-0.466 0.442,-0.422C0.483,-0.378 0.503,-0.316 0.503,-0.238L0.502,-0.212ZM0.39,-0.302C0.374,-0.36 0.337,-0.39 0.279,-0.39C0.265,-0.39 0.253,-0.388 0.241,-0.384C0.229,-0.379 0.219,-0.374 0.209,-0.366C0.2,-0.358 0.191,-0.349 0.185,-0.338C0.178,-0.328 0.173,-0.315 0.169,-0.302L0.39,-0.302Z" style="fill:rgb(0,148,1);fill-rule:nonzero;"/>
                </g>
                <g transform="matrix(16,0,0,16,529.572,288.6)">
                    <path d="M0.439,-0.455L0.439,-0.309C0.414,-0.34 0.392,-0.361 0.372,-0.372C0.353,-0.384 0.33,-0.39 0.303,-0.39C0.262,-0.39 0.228,-0.375 0.2,-0.346C0.173,-0.317 0.159,-0.281 0.159,-0.237C0.159,-0.193 0.172,-0.156 0.199,-0.127C0.225,-0.099 0.259,-0.084 0.301,-0.084C0.327,-0.084 0.35,-0.09 0.371,-0.102C0.39,-0.113 0.413,-0.134 0.439,-0.166L0.439,-0.021C0.395,0.002 0.35,0.014 0.306,0.014C0.232,0.014 0.171,-0.01 0.121,-0.058C0.072,-0.105 0.047,-0.165 0.047,-0.236C0.047,-0.307 0.072,-0.367 0.122,-0.416C0.172,-0.464 0.234,-0.489 0.307,-0.489C0.354,-0.489 0.398,-0.478 0.439,-0.455Z" style="fill:rgb(0,148,1);fill-rule:nonzero;"/>
                </g>
                <g transform="matrix(16,0,0,16,537.611,288.6)">
                    <path d="M0.069,-0.825L0.179,-0.825L0.179,-0.436C0.218,-0.471 0.261,-0.489 0.309,-0.489C0.362,-0.489 0.405,-0.471 0.438,-0.437C0.465,-0.406 0.479,-0.358 0.479,-0.292L0.479,-0L0.369,-0L0.369,-0.281C0.369,-0.319 0.362,-0.347 0.348,-0.364C0.335,-0.381 0.313,-0.39 0.283,-0.39C0.245,-0.39 0.218,-0.378 0.202,-0.354C0.187,-0.33 0.179,-0.289 0.179,-0.23L0.179,-0L0.069,-0L0.069,-0.825Z" style="fill:rgb(0,148,1);fill-rule:nonzero;"/>
                </g>
                <g transform="matrix(16,0,0,16,546.384,288.6)">
                    <path d="M0.069,-0.476L0.18,-0.476L0.18,-0.432C0.218,-0.47 0.261,-0.489 0.31,-0.489C0.365,-0.489 0.408,-0.471 0.439,-0.437C0.466,-0.407 0.479,-0.359 0.479,-0.292L0.479,-0L0.369,-0L0.369,-0.266C0.369,-0.313 0.362,-0.345 0.349,-0.363C0.336,-0.381 0.313,-0.39 0.28,-0.39C0.243,-0.39 0.217,-0.378 0.202,-0.354C0.187,-0.33 0.18,-0.289 0.18,-0.229L0.18,-0L0.069,-0L0.069,-0.476Z" style="fill:rgb(0,148,1);fill-rule:nonzero;"/>
                </g>
                <g transform="matrix(16,0,0,16,555.158,288.6)">
                    <path d="M0.047,-0.241C0.047,-0.31 0.071,-0.368 0.121,-0.417C0.17,-0.465 0.23,-0.489 0.3,-0.489C0.371,-0.489 0.431,-0.465 0.481,-0.416C0.53,-0.368 0.554,-0.308 0.554,-0.237C0.554,-0.166 0.53,-0.106 0.48,-0.058C0.431,-0.01 0.37,0.014 0.298,0.014C0.227,0.014 0.167,-0.011 0.119,-0.06C0.071,-0.108 0.047,-0.168 0.047,-0.241ZM0.159,-0.239C0.159,-0.192 0.172,-0.154 0.197,-0.126C0.223,-0.098 0.258,-0.084 0.3,-0.084C0.343,-0.084 0.378,-0.098 0.403,-0.126C0.429,-0.154 0.442,-0.191 0.442,-0.237C0.442,-0.283 0.429,-0.32 0.403,-0.348C0.377,-0.376 0.343,-0.39 0.3,-0.39C0.258,-0.39 0.224,-0.376 0.198,-0.348C0.172,-0.32 0.159,-0.284 0.159,-0.239Z" style="fill:rgb(0,148,1);fill-rule:nonzero;"/>
                </g>
                <g transform="matrix(16,0,0,16,564.775,288.6)">
                    <rect x="0.069" y="-0.825" width="0.11" height="0.825" style="fill:rgb(0,148,1);fill-rule:nonzero;"/>
                </g>
                <g transform="matrix(16,0,0,16,568.759,288.6)">
                    <path d="M0.047,-0.241C0.047,-0.31 0.071,-0.368 0.121,-0.417C0.17,-0.465 0.23,-0.489 0.3,-0.489C0.371,-0.489 0.431,-0.465 0.481,-0.416C0.53,-0.368 0.554,-0.308 0.554,-0.237C0.554,-0.166 0.53,-0.106 0.48,-0.058C0.431,-0.01 0.37,0.014 0.298,0.014C0.227,0.014 0.167,-0.011 0.119,-0.06C0.071,-0.108 0.047,-0.168 0.047,-0.241ZM0.159,-0.239C0.159,-0.192 0.172,-0.154 0.197,-0.126C0.223,-0.098 0.258,-0.084 0.3,-0.084C0.343,-0.084 0.378,-0.098 0.403,-0.126C0.429,-0.154 0.442,-0.191 0.442,-0.237C0.442,-0.283 0.429,-0.32 0.403,-0.348C0.377,-0.376 0.343,-0.39 0.3,-0.39C0.258,-0.39 0.224,-0.376 0.198,-0.348C0.172,-0.32 0.159,-0.284 0.159,-0.239Z" style="fill:rgb(0,148,1);fill-rule:nonzero;"/>
                </g>
                <g transform="matrix(16,0,0,16,578.376,288.6)">
                    <path d="M0.529,-0.011C0.529,0.011 0.529,0.031 0.527,0.048C0.526,0.065 0.524,0.08 0.521,0.093C0.513,0.129 0.498,0.16 0.475,0.186C0.432,0.235 0.373,0.26 0.298,0.26C0.234,0.26 0.182,0.243 0.141,0.208C0.099,0.173 0.074,0.125 0.068,0.063L0.178,0.063C0.182,0.086 0.189,0.104 0.199,0.117C0.222,0.146 0.255,0.161 0.299,0.161C0.379,0.161 0.419,0.112 0.419,0.013L0.419,-0.053C0.376,-0.009 0.326,0.014 0.269,0.014C0.204,0.014 0.151,-0.01 0.109,-0.057C0.068,-0.104 0.047,-0.164 0.047,-0.235C0.047,-0.304 0.066,-0.363 0.105,-0.412C0.147,-0.463 0.202,-0.489 0.27,-0.489C0.33,-0.489 0.38,-0.466 0.419,-0.422L0.419,-0.476L0.529,-0.476L0.529,-0.011ZM0.424,-0.237C0.424,-0.283 0.411,-0.32 0.387,-0.348C0.362,-0.376 0.33,-0.39 0.291,-0.39C0.249,-0.39 0.216,-0.375 0.192,-0.344C0.17,-0.316 0.159,-0.28 0.159,-0.236C0.159,-0.193 0.17,-0.158 0.192,-0.13C0.216,-0.1 0.249,-0.084 0.291,-0.084C0.333,-0.084 0.366,-0.1 0.39,-0.13C0.413,-0.158 0.424,-0.194 0.424,-0.237Z" style="fill:rgb(0,148,1);fill-rule:nonzero;"/>
                </g>
                <g transform="matrix(16,0,0,16,587.955,288.6)">
                    <path d="M0.219,-0.088L0.005,-0.476L0.133,-0.476L0.278,-0.202L0.414,-0.476L0.538,-0.476L0.159,0.259L0.034,0.259L0.219,-0.088Z" style="fill:rgb(0,148,1);fill-rule:nonzero;"/>
                </g>
            </g>
        </g>
    </g>
    <defs>
        <linearGradient id="_Linear1" x1="0" y1="0" x2="1" y2="0" gradientUnits="userSpaceOnUse" gradientTransform="matrix(144.774,0,0,144.774,435.935,162.605)"><stop offset="0" style="stop-color:rgb(255,180,0);stop-opacity:1"/><stop offset="1" style="stop-color:rgb(255,27,0);stop-opacity:1"/></linearGradient>
        <linearGradient id="_Linear2" x1="0" y1="0" x2="1" y2="0" gradientUnits="userSpaceOnUse" gradientTransform="matrix(106.025,0,0,106.025,413.606,121.01)"><stop offset="0" style="stop-color:rgb(0,180,0);stop-opacity:1"/><stop offset="1" style="stop-color:rgb(0,61,50);stop-opacity:1"/></linearGradient>
    </defs>
</svg>
